<mxfile host="65bd71144e">
    <diagram id="NED6aIw26uWU-y9cfnh6" name="PÃ¡gina-1">
        <mxGraphModel dx="1720" dy="411" grid="1" gridSize="10" guides="1" tooltips="1" connect="1" arrows="1" fold="1" page="1" pageScale="1" pageWidth="827" pageHeight="1169" math="0" shadow="0">
            <root>
                <mxCell id="0"/>
                <mxCell id="1" parent="0"/>
                <mxCell id="121" value="" style="shape=image;verticalLabelPosition=bottom;labelBackgroundColor=default;verticalAlign=top;aspect=fixed;imageAspect=0;image=data:image/png,iVBORw0KGgoAAAANSUhEUgAAA8EAAAJKCAYAAAAMSEevAAAABHNCSVQICAgIfAhkiAAAIABJREFUeJzs3XeYXVd9//v32meqpkujXlwlV1nSyEXGYGyCwcFObEw1ITRjIAkhJIHclJvQwk0CNwnhRxISiguYal8gIQE3uXdbxbJc1K3eNZoiTTtn3T/2jC3JkkajmTNnRuf9ep6xxnP27P094mF7f85a37UCkiRJKoQAVBGpugQq9kJN3TpOjY9xUmZHZiYdycxcT5wUc7Eh5qjN5UJljJSGQIZIJBBiJBsC3UmIHSGhJSRhT1IatlKRW5Mbm30puZh1e09jbRW0PAb7CbQD7UAs8HuXpIIJhS5AkiSpiEy5KjKzHKY1P8Qp8fmSc2kpaYpdnFZaniSZkJApS2JpWRLKyjNkMoEkE8gkgSQJhBAIgfQJLqZJNuYiuRjJZiO5bPpnd1eWrs5czHblQjbm6OnMEcpYTV3PonBGz7LaN/JyN2z4ZWAlsLGwfyWSNLwMwZIkSfl18oJfcnWmhzlhUzJ1TFfFeWWZkqllZRkyJYHS8oSSkvTrleHZ+OpAbRzAmG048MkupP8IQE82R093ju6uHNnuSFdXls5cduu+kv1LmZzbGKt4/tEr+S9g1WDfrCSNdIZgSZKkPGj8FB+bMJH3VeTC+Im1VafV1paXl5Qk6chuJhwUWAcSdI/XodfL5iK5nki2J0dLa1fPtr1tK/aHuLt5Pz/e/GW+kf+KJKkwDMGSJElD4Z+pP//TnF3295lP97SFdzWMrexpnFRRUl6eSUNujOlI70jqxg19A8ZpKO/qyrJzW0d2z+79mcyY3C96/jz3j0/CcwT2FLpUSRoqhmBJkqTBGX9t5LLd/1L6kZJ9pW+tqS8NDeMqSJJALjeSEu+xSZJAjJE9uzppbe7K9VR239fwR903/zxwN7Ct0PVJ0mAZgiVJko7T23fz3g23hneP7RlzTf3YilBZVRKSkIbI0S6EQC5G9rf3xJbmzrAz1/5fUz4Q7/ivCdwGZAtdnyQdL0OwJEnSwNXO/jw/HF9VcdH4xqpxFZUlJMnw9PYOtxAgF6Fzf5adu9qat7Z2PP7c57kB2Fzo2iTpeBiCJUmSjl3J2V/jhjHbMt886ZS6XN3YsiTm4gkZfg8VAoQk0NLcFdevawl7x/T80Ut/wTcJdBW6NkkaCEOwJEnSMTgpMn7m7ZnPx7Xl7588rbq2tDQhjsKe38EKAbLZyJYNbe09kzt/XPL+7F/fHRwVljR6ZApdgCRJ0igw7pzG8OMxzVVvnzy1ekxJSSiK0d8jSZJAdW15WfeucG7bk90L1v8q3gvsLXRdknQsHAmWJEk6utK5f8+DM2pqF4xtrEyfnoo4AB9qz64ONuzc++Kiv2EOODVa0sjnSLAkSdKRVV/4z/zP5Mq614+fNCYU8+jvkVRVl1KWlI4b8/qOt265h58AnYWuSZKOJil0AZIkSSPTG0suvT38+VhqFjSOrwi5rAn4cHK5SMO4sjCxonb2Jd8PX4DTywtdkyQdjSFYkiTpMC6LDyxIVpX9wfgJlWOCDWRHFXMwfmJFZcXm8g9fGVe9qdD1SNLROB1akiTpMCZWJF9vrKueU1VTMizToLty22jvaacsqSSE145TdOW20ZVrpzSpPuxr3bl2Sg7z2nBJkkCMSfnOe7saNt4T7wCyBStGko6ipNAFSJIkjUDTyrIl14xtLB+WVaC7ctu4fNqXufDUS/jG41fS0tlBaZIhm8uShHRboitP+yITxszkpmevpzTJ0J3LkgkQI7x15l9QXTae25f/CZkA2QhJgNKkkTBMYx4xQn1DWdizu+yqCbHjjO2BZ4flwpI0QIZgSZKkQ8z5Oz5aW1WRI4RkuPZCysYeerI9dGQ7uPa0f2VF80JmNVzK1vYVLN7+r6zatZRtLdvJRZjV8HbOG38V2/et5fEt/8aanc9RXlJHCHDhpD9mSs0smju289iWz5HNNhLCME3+C4GamvLcyf9v5w3biX80PBeVpIExBEuSJB2itCdcWVNfOmwBGHhl26XWHvjN894NL+6Aniy/de5H2fDIi5w98SImV53Fir3f4Kqzb2DDzs3Mn/FGSksyVJTnqCqdQF3pdM6bPpede/cya+I5TKj+Lj964SOUh4nD9B4i1XWlybYd4TcxBEsaoVwYS5Ik6RC57nhyRXnJsGbgA3Vnu1my5ed8a/mfkMQKxo2ZRDZm6c528YYZn2dr2xr+c9kN3P7s11m+7WFyMZKjm/OmXML25r18+7mPsXTjE0ysH099+Qxi7BmWumOE8rIMuR5OGpYLStJxMARLkiQdIgbKk0whl4SObN+3hKpMOk06SQJEiDEyfsxJ7Nq3gdoSWN/6C15uuxuATJKB0M2+rnYqM7Cvey9duVaqSqcRGZ4QDND791Y2bBeUpAFyOrQkSdIhkoT2bE+uPhRwb6TkMJcOIWHD3uc4a+KF7OyGK6d9ksh+CJDNZskmgdrKatqzUF85noqkgebOJYQwZtjqzvZEgP3DdkFJGiBHgiVJkg4RkrCmoyPLcGbgTFJCSaaEAJRmSl+5dklSShIyZJIMZZkyHtrwj5RlKvjKZQ9wxRnvoLykiiQklCTlPPryLxhf18DnLvkV86a/juVbnmFf975hWyE6BOjs7CEpZfWwXFCSjoP7BEuSJB2i7nLqynOZt9TWlQ/LHsFJKGVPRwtrd75Ee/dy1m/fx/Z9z1KWZNm0ax/rW59iW+tG1u5+iebOF1i3awN72zpYsuUBXtj1U3a1tbK+eTVrW+9g+95udrRu5/ltT7F4x9fIhPEEhifNJ0lg987OXHum4z8238X9w3JRSRqgQja7SJIkjVRjLv6b0vaZZzWk/bjDINJJLraRCWPpidspCROAQDZuIwnjehe36iQJdeTiPrKxlSQEktBIjN1AjiRUko3NxNhJCAmZ0MhwPu7lcpE1K5t5+K+7phHYNGwXlqQBcDq0JEnSa+0rmdbzrT27OodtSnSgnEwYBwRKwkT6wmsmTCRQQhIqSEIdAEkYQ2kykUyYQCAhCeUkobL3+HpKkolkwniGMwCHAC3NXYQJ2e8T2D5sF5akATIES5IkHc6N8Zt7W/e/3NWZG9be4FEpQE93pLll/8YxH89+C+gudEmSdCSGYEmSpMN4KLCo5o0939iyob2tUPsFjxYhBDZvam8rPafru3cGHix0PZJ0NH6uKUmSdBQL7uDrNWvHfHLq9Jp0fSkD8Wts29zO9rFtNz/zQT5c6FokqT+uDi1JknQUG3/CXePf2z2zZ3uYXVVTGpPEydGQ9gDncpFtW/azp6ztf5+6kevxIwJJo4AhWJIk6ejipl9w5yk3dk1uWRvPraotSzJFHoRDgGyOuGVDe3fP1PYfP/wRPga0F7ouSToWhmBJkqT+da/5Kb8662+ynVue6jq/tr68orQ0oRh7hZMk0NMTWfNic2vZnO5/uucduc8ArYWuS5KOVVF/iilJknQcXn/uF/jPGQ21JzeOr6hMMqEoJgGHANlsZM/uzo512/duXfYFbgAWFrouSRooR4IlSZIGZv32+7mp8V2dtft3dk+MXUlDaXmGTElyQobhkARy2UhLc3fcsadt456q9h8s/lPeBzxf6Nok6Xg4EixJknSc3hV53cZbeGfZpopP1o+tyNQ1lCUlmYRcbvSn4SQJZLM5WvZ2Z/fs2J9pm9Dxf06/kdt/FHiIEzLuSyoWhmBJkqTBqbg0ckr3VzN/HZuTd9c3licTp1aFTBKIMY6qvuEQ0j1/czGybfM+mnd0ZKnN/qLyz3JfWhh4Cdhf6BolabAMwZIkSUOneu4/8oe5Nj40trKiunHsmCkVFRmSTCCTefWxa0QE4/Dqg2A2F8n1RDo7suzas2/rzn0d7ckYvrfks3wN2FvIMiVpqBmCJUmS8mDWt7m2ro43Z7aEk+tylQsqy8rGlZQmlFUklJZl6BsphuEJxa9s6hQCMRfp6srS3ZGjuztHR2d3y56SfQ/FCXHD/hz3Lrue2/NfkSQVhiFYkiQpv8ZdFbkgaWdm6x1hdmZn+aV0J2eUlWUoLU9ixZiSUF6eBuO+TtsIByXjYwnJB+9cHA4IvdDdnaOzI0vH/mzs7siG7u4suSS3Ko7rfrDqmuyz5WNZfUfgSWD7kLxjSRrBDMGSJEnDp+rcyLiJUJvbwNkdvwgL2F1yaeyMc5LyUJIJCaXlmVhRmQkVlSWUlAYymYSSTCDJJCS9PbshpME4RsjFSC6boycbyfbk6OmJdHb20NGejd2d2dCTy5HtjGTKWRLq4kMlV2UfK5nJ83uh+enALqCt0H8pkjScDMGSJEkjx0zg1LEf5IyJJzOrvIzJCYzLRWpjjspcoDRJCPu3cErlZNbmcsQk0p0kdARoIbCro4stOzezevu3eAFYA6zA1ZwlSZIkSaPYlkIXIEmjVVLoAiRJkjRgJYUuQJJGK0OwJEmSJKloGIIlSZIkSUXDECxJkiRJKhqGYEmSJElS0TAES5IkSZKKhiFYkiRJklQ0DMGSJEmSpKJhCJYkSZIkFQ1DsCRJkiSpaBiCJUmSJElFwxAsSZIkSSoahmBJkiRJUtEwBEuSJEmSioYhWJIkSZJUNAzBkiRJkqSiYQiWJEmSJBUNQ7AkSZIkqWgYgiVJkiRJRcMQLEmSJEkqGoZgSZIkSVLRMARLkiRJkoqGIViSJEmSVDQMwZIkSZKkomEIliRJkiQVDUOwJEmSJKloGIIlSZIkSUXDECxJkiRJKhqGYEmSJElS0TAES5IkSZKKhiFYkiRJklQ0DMGSJEmSpKJhCJYkSZIkFQ1DsCRJkiSpaBiCJUmSJElFwxAsSZIkSSoahmBJkiRJUtEwBEuSJEmSioYhWJIkSZJUNAzBkiRJkqSiYQiWJEmSJBUNQ7AkSZIkqWgYgiVJkiRJRcMQLEmSJEkqGoZgSZIkSVLRMARLkiRJkoqGIViSJEmSVDQMwZIkSaPDBcAlvd/39P65oPfLZzpJOkaZQhcgSZKkY/IB4FtALWkYrgK+BrQC9xawLkmSJEmShtxMYAUQD/haC8wrZFGSJEmSJOXLn3FwCP5yYcuRJEmSJCl/TgEWkwbgl4AzCluOJI0+LqIgSZI0eqwFftn7/a9Ig7AkSZIkSSe023EwQ5KOSyh0AZIkSSeYklWXsXhvN+fGPJw8gVwOkr4/83CJwYkQIi/Pf4yTC12KJB1OSaELkCRJOpHE+XxoTQ2nNZ2UptQ8SA75c8QICezYCeU7+J9C1yJJR2IIliRJGjolPRVc1TiOyp4sxHwMBY9kWdi0C+Y9zL8VuhRJOpIR9wmiJEnSaBXP5XVba2mqKC++ABwCtLTD5MBdoZPVha5Hko7EECxJkjRU6riytI4ZSRE+YcUIrW0wqZlbgI5C1yNJR1KEt2hJkqShF2dw8pY63jKmstCVDL8QoKsLqjpZxJM8Veh6JOloDMGSJElDYSJNLSXML8ap0ABt+2F8C/cFWFnoWiTpaAzBkiRJQ2BjPR9prElHRYtOhI5mNtLCPYUuRZL6YwiWJEkavMnNOa6qrSm+UeAQoKsbGptZH5bx60LXI0n9cYskSZKkQWp9I59tboAkQK4IQ/CWbcTOVXy70LVI0rFwJFiSJGlwKtZ18/YJY4svAANke6C5meZzdvD9QtciScfCECxJkjQI28/k3VUNTM4U4fy6JMCOPXBShp8C3YWuR5KOhSFYkiRpEMY38v7xEygvtl5ggFwOmvdC49N8tdC1SNKxMgRLkiQdp9jE5RtrmVlWVpwLYrW2w4TAr0I7GwpdjyQdK0OwJEnS8arkjUkNJydFuC1SjLC7Dcbv4QdAZ6HrkaRjZQiWJEk6DhFmbKnlqtoxQJGF4EC6LVJVB0vYxNOFrkeSBsIQLEmSdDwuoKmjlPMryvM3FToJr+brJKRTkPuE3p9xhNfzKsC+/TC5hQfCJl4cpqtK0pAwBEuSJB2HTXV8orqGvI0CZyOsb4XW7jTgrtkLO/enQTcAe7tgS/urx6/eC3s6hikIR9i3my1s5pfDcDVJGlKGYEmSpIGbsTnHW+ur87sg1iNb4EcrYG8nfPqR3pBLGnQ3t8NXF0NrVxqSr7kbNrbl/+EuBOjsgupmlod13Jfny0nSkDMES5IkDdCm1/F7UxsgyeTvGqUJXH1KGnb/4Rm4/nQ4owFyvaF7fCXs6IA9nemI8Zsa4Zxxr76eLyHA9h10N+zl/wOy+b2aJA29ItzWXZIkaVDCnsgnZjWm++TmSy5CfRnMHQ/vvBNab4RIOhIcgcZKePep8NIeWLwTLp4CZQl057EmgGwWdu0kOfUF/j2/V5Kk/HAkWJIkaQBiEx8Z00hpPkeBIZ3ivHUfPLEV/uX18I1n02Dc3pNOgc4EmF4DP1sH//4CvGVG2kec75p27YaTyw3AkkYvQ7AkSdKxK+mp5Opx46jKZy9wADqycMcqOH8C3Hg2LN0Jz+6Ex7bCL9amx5xeDxPKYHYDTKjK/1ToXA62NEPjI3wzv1eSpPxxOrQkSdIximdx8YZamibmcVskSKc7J6Q9weMqoCwDX70EKkvSJtxnd6XH1VXAxDHw+5Mh5nkadAiwtw2mBO4O3azO79UkKX8cCZYkSTpWY7myrI4ZyTA8QZUkMK0aKjLpCO/kKhhbAeUJvG9mOvV58TZYuAXeOBWyeQ7BMUJbO0xq5hagI79Xk6T8cSRYkiTpGMTxnLSllrdUVw7fNQ+c3pyL6de549Kp0Fv3pdOlP39+OkKcz5nQIUBnJ1R2sJgneTKPl5KkvDMES5IkHYsZNLWUcn5jnqdC96cvGE8YA397cfrv+V4QC6BtP0xsYWGAlfm/miTljyFYkiTpGGxq4CON1emoaCFDcJ8YoXu46ojQsYdNtHLvMF1RkvLGnmBJkqT+Tdodubq2dmQE4OEUgK5uGNfM+vAsvyp0PZI0WI4ES5Ik9WPvG/js3oZ0n9x8b0M00oQEtmwjdq3l24WuRZKGgiPBkiRJR1e+Pst1E8cWXwAGyPbA3mb2nL2N7xe6FkkaCoZgSZKko9h2Fu8e08DkTBHOn0sC7NgDJ5VwB9BV6HokaSgU4e1ckiTp2E0Yy/vHTKC82HqBAXI52LsXpj7FVwtdiyQNFUeCJUmSjiDO4fINdcwqKyvCBbECtLZDY+DXoZ31ha5HkoaKIViSJOlIxnBppoaTk1DoQoZfjLC7DSbs4QdAZ6HrkaShYgiWJEk6jAjTt9ZzVc0Y0n2CikjftkhVXSxhG08Vuh5JGkqGYEmSpMO5gKZ9pVxQUV58U6EJsG8/TG7mwfAyLxa6HEkaSoZgSZKkw9hUxydqatLe2KITYf8etrCN/y50KZI01AzBkiRJrzV9c44r66uLbxQ4BOjsgqo9LA+rua/Q9UjSUHOLJEmSpEPseiOf7GqEklKIuUJXM7ySBF7eQe60Vn4GZAtdjyQNNUOwJEnSIdrhsj0b6Ni5kZ5C13KoTCC3u5vasaW0ZGNeZvUlpQnrw3L+PQ/nliRJkiRpwLYUugBJGq3sCZYkSRp9nM0nScfJECxJkiRJKhqGYEmSJElS0TAES5IkSZKKhiFYkiRJklQ0DMGSJEmSpKJhCJYkSZIkFQ1DsCRJkiSpaBiCJUmSJElFwxAsSZIkSSoahmBJkiRJUtEwBEuSJEmSioYhWJIkSZJUNAzBkiRJkqSiYQiWJEmSJBUNQ7AkSZIkqWgYgiVJkiRJRcMQLEmSJEkqGoZgSZIkSVLRMARLkiRJkoqGIViSJEmSVDQMwZIkSZKkomEIliRJkiQVDUOwJEmSJKloGIIlSZIkSUXDECxJkiRJKhqGYEmSJElS0TAES5IkSZKKhiFYkiRJklQ0DMGSJEmSpKJhCJYkSZIkFQ1DsCRJkiSpaBiCJUmSJElFwxAsSZIkSSoahmBJkiRJUtEwBEuSJEmSioYhWJIkSZJUNAzBkiRJkqSiYQiWJEmSJBUNQ7AkSZIkqWgYgiVJkiRJRcMQLEmSJEkqGoZgSZIkSVLRMARLkiRJkoqGIViSJEmSVDQMwZIkSZKkomEIliRJkiQVDUOwJEnS6HAWMLv3+2zvn+f0foWCVCRJo1Cm0AVIkiTpmHwS+M/e7y8DuoFvkQ5q3F2gmiRJkiRJyoszgbVAPOBrA3B+IYuSJEmSJClfPsfBIfifC1uOJEmSJEn5MwtYShqAVwLnFrYcSRp9XBhLkiRp9FgB/Lr3+7uB5wpYiyRJkiRJedcI/C8wsdCFSNJo5EiwJEnS6DL2npuYAowrdCGSJEmSJOVNXMrFD/+QjUt+Sbzve+yKz3FZoWuSpNHGkWBJkqRRIC7l4sVruLlhHFPHT4CJkxj7zApuist5U6Frk6TRxBAsSZI08s16ZDk/KR/DrNpayOWgpgbG1HDyo8v4PjC/0AVK0mhhCJYkSRrZZi68hfvHTWBaXf3BL9TWwrjxTL7z29wPnFWI4iRptAmFLkCSJEmHF5dy8cPL+WnjBKb2jQAfKkmgvR02bmD35fN4R5jN/cNeqCSNIoZgSZKkEaivB7hsDLPq6yHGIx8bArS0wL5W1s2fyQ1hNguHr1JJGl2cDi1JkjTyzHpkOT8pG8OsurqjB2BIX3+lR3g53wfOH5YqJWkUMgRLkiSNLK/0ANfX93/wgQ7oEb4Pe4Ql6bCcDi1JkjRCxCVc/PDzR+8B7s9BPcJzeEeYY4+wJB3IECxJkjQCDKQHuD/2CEvSkTkdWpIkqfBmPfo8Pz7WHuD+2CMsSUfmSLAkSVJhnX7frTwwaQpTamoGH4APFAK0tcHL62h96w1cCLw4dGeXpNHJECxJklQgcQkLHn6e2wfTA9yfV3qEX2b35fO5LszmgaG/iiSNHoZgSZKkAohLuXjJWm4qreSMwfYA98ceYUl6lT3BkiRJw2/Wo8/z49JKzhiKHuD+HNIj/D3sEZZUxBwJliRJGl6n3XczD06aNvQ9wP05pEf4AuCl4bu6JI0MhmBJkqRhEp9lwcPP5bcHuD8H9Qg3cV04zx5hScXFECxJkjQMhrMHuD99PcLtLaw7fxYfCbO5r3DVSNLwsidYkiQp/4a1B7g/fT3CVbXuIyyp+BiCJUnSCSXCl9bDs0DJYV6b8xz8U4Qxw1jSaffdzH1jxzO9vn4Yr3oMamth3Him3PkdFgJnDOW5T+f0BUDlUJ5TkobCa/7jIEmSNFpFOGMNvONU+CjQE2EKMB3oDrAIKNkGDeekxzYCp/X+6ksBmiPUAacDSYAXgLZB1fMsCx5exu2NE5lSqB7go+kbET7lVGoW3syjQ9UjPCfOmZ6Q/MNc5v55hszmmI59N0bi9kBgUVi0cV6cVwlM/u3w2+u/wBdyTbFpbiCU9NCzdmlYumPw706SDs8QLEmSTiSntUEN8LYI27bD/z0B9m6BqRH+B3g6AzkgE+GLAfYD5btgI/CPu+GPxsJEoCNCR4C/Jj1+wOJiFixZw80NjUytqRl5AbhPLgdjxsCkqYx9eiU3x2WD7xEOhFmBcFYgnBkI78h2Zs9IypP7SP8uJwN/AcwEPvsFvvCpptj0rkh8fSRuDYTauXHuZ5eEJa1D8PYk6TWcDi1Jkk4YAe6fAs8BXwZ2T4B/DfDpKWno+kiArt5DSx6AC26COwJ8chz8PMLsCCcH+FSAP10OJ0eYe5ylzHr0pZHTA9yfg3qEnxt8j/CSsOReYPmisOiHWbLbkvJky6Kw6J8CYUsk9v1vkKP3QwjgTxeHxR9YHBb/WYZMeSDYoywpbxwJliRJJ5KSLGSA8pBOh756NfxtDiroHdGN6e4YHZfBZybCF55PR37/AOhZCe9cC3OAsDc9z8TjqOHUhbewcGzvCPBID8AHqq2FJGHKnd/h3t59hFccz3nmx/kJ6d9fKZDJkXu+96W+AZgYCJH0f5MJwLim2PQ4kIkxzoghPgyuWC0pPwzBkiTpRJSL8C5g+mlwZe+I7jeBbIBIGs7WnQ1XAOOWwAtz4LKL4LYEfq/3HHXA3oFcNC5mwUPPc/v4iYXbB3gwDugRrl14M49dPo+3hzk8ONDzBAK59DOHHBATktj7855ILE0vFauABmB7IOx6JjyzoPfXqxlkL7YkHY0hWJIknUjC/nTUNwG2RaiPcONeGNsMVREuvycdoaxYB/8Q4cne37snwOo1sDPCF4CWJTB2HvwdxxjI4mIWLHmZm8eO8B7g/hzYI/zMam6Oy7khnDOwUdmnw9O5ptjU3RSbfjcSJwKbALJkX0xIrp0f538iEqeQToXeH4nfaYpN/xgIL+fInZUj97mlYen2PLw9SSIUugBJkqQhVBLhYuAx0tHe15OOLD4KzAZaSFeKXhrhTOAsIIb09a0RJgHzSYP0kgCrj/G6sx75EXfXNTCjrm6I39EAJAmUZNLvcxF6egZ3vtZWaN7Fpte9l2uBpwfyu02x6UKgOkdub0Kyd1FYtAoITbHp/EAYD+wC9n0pfGnF23hbrik2XQFURuKaxWHxEtIRe0kacoZgSZKkwTl14S08OGlKOgV6MD3ASUjD66HfH4tMAivXwX/cBtt2wLuuht++ArLZ468nBGhrg5fX0fLWGzgfWHn8Z5OkkcHVoSVJko5TXMRFD97Gg5OnMnWwq0B3d8PWna+G1q07IZtLR3YzB3wlSRp4D/xZSQk0t8Itt8N7fgu+/RW4+XZ4+tn09eN+fwf0CN97M4/H57j0+M8mSSODPcGSJEnHIS5lwZK1Q9MDHAK07YOvfQc+/j7Ysxfu+DV89L2weVt67kAaik89CXbthta29PciadBtbIB9HTBjKpSXw/uugZ27Bz/tr69HePJUxj6z4vh6hCVpJDEES5IkDdysx1/kxzX1aQ/wYLdBihHG1sN1V8IvF8JDT8I3vpiG2fZ9Bx9XXgY1Vb29v70JN5Okgbh6DJT2jvxObISW1sHVdeB1a2oAOOWx5/heXMa1YfbAeoQlaaQwBEuSNDzmAdcDFwEzgW8Bnwa6ClmUjkv88T/RU1nN5IaGoV0Fet63YSFpAAAgAElEQVS58OCTMOsUmDYZOrtg9hm8Opwb05HfCePS0NsnBNi4GfZ3vNpHvG//wccMhbo6yGWZ+sm/55ekbXWuL6Mj6QR2kPaRPwL8GNha0IqkXoZgSZLyax7wR8BU4DvAv9C7XQzwuUIVpcF5z58w595beLC8nNrq6qE5ZwCeXJIG15fWwLqN6RTpm34CuWx6QEcHvP86ePZFeGFlb79vhLJSeO816XTplrZ0VPmxZ+Dy1w3dEsshpKtFb99B2zf+L97zr7fxwBCdWieucuBs4M3AfwP3A/8GrC1gTZKf3kmSlEcXAn8L/AT4doFr0RCLS3nzkyu5qbaeaTU1g5sSHQLs2gP/52b42PvSXt7//AF85S+hrpaDkmw2l64cfegob0cn3PkArN0IJ0+DB5+AP/sEjGsY/HTtvlWi9+xm24Kz+Fg4l/8a3BlVpP4KmAt8DNhT4FpUxAzBkiTlR0I65fkR4LsFrkV5Epfx1oef49YJE5lQXX38U6NDSHt/t+9Mp0GXlsKKNTBlIlRXHVuIDQHa98OmLelK0+PHwaQJg9siqe+8HR2wYT0tl83lA2E2vxjcGVXkvgKsAb5Z6EJUvAzBkiTlxwLgL4BrCl2I8uuur3BJTz33zZxFaWXl8Y+6ht7R3b4gnSTpuQZyvr5zBNLfG8g+w0c6X0cHrFgBpc1cfsVnuX9wZ5Q4nXRmzGUFrkNFzBAsSVJ+/DPpKPDthS5Ew+K8u2/i4WnTqRmqHuFC65sCvWkTbe//AG/bAg8VuiadMJ4Dzi10ESpeSaELkCTpBDUfeLTQRWjYPPvmJt7R0szGtrahX5V5uPUF4ObdbHtTE79jANYQ21boAlTcDMGSJOXHdGBzoYvQ8AlzuPvCM/jozh1sb29PpzOPRn1ToLdspuWis/m4i2ApD+YWugAVt1F6e5YkacQ7QSbFaiDCbO6saOa61avp3r9v9I0IH9QDvJtrwzkugqW8GMLdtaWBG2W3ZkmSRo0dwPhCF6GCGXU9wiFAezts2ED71R/kNzucAq2hdSpQCrwEbAUm9f4sA6zGYKxh5EiwJEnS0BtVPcKv7AO8i22/MZ/3GYCVB9cDTwF/ApQDnwAeAP6UNAhLw2aE35IlSRq1HAkWcTlvfeRZbh0/yH2E8+mgfYCb+IBToJUnpwL3AKcc8LNtwLvwQxcNM0eCJUmS8iScw50N+3jHqtX07N8/8kaEX+kBXgkNXfYAK6/WAN855Gf/gwFYBTDCbsWSJJ0wHAnWgUZcj/CBPcBv/iC/iWFE+Xc68CPSLeQ2ANcCiwpakYqSI8GSJEn5N6J6hA/pAf4dDMAaHquAX/V+fz8GYBWIIViSpPyIhS5AI0vvPsI37irwPsJ9U6C3bqblojP5RDjXKdAaVl8H7gb+qtCFqHgZgiVJGnon3/r3dAEnFboQjSxhNr+enClcj3AI0NkBK1fC+Mjbw2x+PrwVSJTf9R0agIpCF6LiZU+wJElDKC5mwYPP87PaOia17mXLG87m7WEeTxS6Lo045911E49Mn051TfXwTBuwB1iFFp9h3hOr+Gl5Faft3EHrm8/nt8JsHih0XSo+jgRLkjRE4lJet3gdtzSOZ9KECTBuPJOXvMwtcSkXF7o2jTjPXtHEdXv3sKl1GHqE+3qAd+9iuz3AKoT4NPOWbeHmqjpOmzABpk2n5ukV3BKf4zcKXZuKjyFYkqShcc5jL/KDsjHMqq1N94OtrYXSSs547EV+CJxV6AI1soQ53H3RmXw03z3CB/YALziTj9sDrAKY+tgqfhpKOK++Pr0/VldDVS0nPbacW7b92g8KNbwMwZIkDd5JC2/h7vqxnFRff/AL9fVQP5aTFt7MvcCMglSnESvM5tenVvLOVavI5qNHOATo7Ex7gKeXcp09wCqAqQ/fxj11YzmtoeHgF2prYew4pi7awD3AaQWpTkXJnmBJkgYhLmbBA8v42aSpTKqpSUc4DpUk0NoKWzax9bK5XBvOs0dYr3He3TfxyLQh7BF+pQd4Pfve/CGuxCnQGmZxMXMfe4nb68ZyWt8I8KGSBPbtg7Wrab3iAn4rnGePsPLPkWBJko5TXw/w+ElMqq4+/AMevDr1b8IkJi1eza1xmVP/9BrPvnkIe4T7AvDuXWz/jfN5HwZgDbP4NHOXbeKWmnpOq6s7+v2xshKmn0TN0yvtEdbwMARLknR8DuoBjv0M3cWYTv0rG8Osx5/nB8DZw1KlRo1XeoR3Dq5HuK8HeMsmWhacbQ+wCmLq46tf7QE+lvvjgT3Cu+0RVp4ZgiVJGriTFt58+B7g/tTXQ91YTr7vZu7GfYR1iDCbX59Tf/w9wgf2AM+s5rpwjj3AGnZTH76Ne2obOP3QHuD+1NZCwzimPm6PsPLMnmBJkgYgLuKi+5/j55OP0gPcn4N6hOdwbZhjj7Be47y7vsuj02dQVVPT/0ga2AOswjuWHuD+2COs4eBIsCRJxygu43WLX+bWCf30APfnlR7hiUxaspZb7BHWYTx7xXyua93DptbW/keE7QFWocWnmbtsQ/89wP15pUd4hj3Cyh9DsCRJx+acx5/ntmPtAe5PjFBbl+4jbI+wDifM4a4LzuLG/nqED+oBPpNP2AOsAkh7gMuOrQe4PzFCdU3aI/z489y8+x4/KNTQMgRLktS/GQtv5u66sZw80B7g/vT1CC9Me4TdR1gHCefyqznjedeqleQO1yN8YA/wWQ28I8zmZ4WpVEVsyiM/4O7j6QHuT20t1I9l2hPruBs4dWjPrmJmT7AkSUcxFD3A/TmoR/g8rg1z7RHWa5x313d5dMZJVFVXpyNlfVOg169n/xUf4q04BVrDLD7J3MfWDK4HuD99PcJrVtP6lvO5OszhwaG/ioqNI8GSJB1BXMbFQ9ED3J++HuHxE5m0ZJ09wjqsZ6+Yz3Utu9Me4SR5tQf4zedzPQZgDbP4NHOXbR18D3B/DuoRXsWt9ghrKBiCJUk6vHMef/7Y9wEerBihzh5hHUVfj/DuXWzfvRu2brYHWAUz9fHV/JTSoekB7k+MUHNAj3DLA35QqMExBEuS9FozFt7MXfnoAe7PIT3C04f36hrpwrn86nVn8t4NG9h86RzeYw+wCmDyIz/g7tp6Th87dngv3Ncj/MhK7gZOGd6r60RiT7AkSQeIz3DR/cvz2wPcn0N6hK8Jc3ly+KuQpIPFJ5jz2FruyGcPcH/sEdZQMARLktQrLuXiJWu5qWwMZ9TV5X+K39GEAM3N0L2fl+aexofDbB4rXDWSil18mrnPbeHmWMKcsWMLf39saYG2vbx8wZl8JJzLwsJVo9HI6dCSJKXOefxFflBayRnD0QPcnwN7hJ94gduwR1hS4Ux9Yg0/iSXMaWgYGffHmhqoruOkx5/nFnuENVCGYEnSsIvwxW3wNFBymNfmroKvRCgdxpKmF6oHuD/19VDbwCkLb+EuBtYjHBppnAdU5Kk0SQUQ4TMr4CUOc4+McNZq+LsIQ3knm/zwbdxdXcfM4e4B7s8rPcIrBt4jPI5x5wOV+alMI91rHj4kScqnCDNXwHtnwbVAT4SJwCSgK8ALQPnLMPG09NixwDTS9p1VAdoj1NIbBgOsAfYPqp7FXHj/Mn5RyB7go+kbEU4Spt53K09eNptrwrz+e4TnxXknA/8wlan/Vyml27JkI1AXic0JSVwUFm2bF+dVAuMWh8VbAJpi0xlAJkt2w9KwtDmvb0zSgEU4eQu8dybcCHRHaASmALkAzwGl62DiqRB675Un9/7qywH2RqgCTgJKAqwC9h31ek8x57HVhe0BPpoY0yB8+kyq7vwOS98yn6vD3P57hC+Plzc00/zP05n+mQyZlwFy5MZF4s5ACIvD4m1Nsak0EicuCou2BELPvDjv7ISkJEdu0+KweFf+353yyRAsSRpu5+1LH86uj/C97fAXE6BjPUyO8ANgZQayQHmEL/UuXlHRDsuAf98NfzwWppIG6E0B/h/guCbn9fUAj5+Y332AB+ugfYRf5ta4hA+Huf32CM8JhLkJyTxgHjmmk/BoICRADfBXgTA7En8P+KN5cd77gEsjcVdCksyNc/9kSVjSme/3JmlAztwF4yfDeyOs2Q2fHwu5TTAhwi+AR0vS+2cW+DKQAUq3w3rgb3vgD0rgDGBfhLYAf8kR7p99PcDVdfndB3iwDtxH+Kl0H+F+e4RbaDk39ITZoSScD7w925Y9J6lOngJ2AacCfxGJJ8ds/GIgfKopNr05Eq+JxG1Aydw496+WhCV7huHtKU+cDi1JGlYBft0Izwf4a2DvBPiPAL83Az4PfDhAV+8TWfnD0BTguwFuqIJ7I8wDpgb4WIDffxHOinDucZZyzhMvcVtpZeEXwToWB/UIr+i/R7iEkv8FFi0Oi7+fJbstSZLNi8PirwTCZqC797BsJO4HygPhjxeFRe9bHBb/YSA0AnPy+44kDVSAB06BRaT3z9axcEuAj02D32+FTwbo6jv0frjkFrgtwI0T4BcRztgO54X0uD9cDqdFmH+ES42oHuD+HNojvL+fHuFnwjMPUcLzi8Kim3LkNiXVScuisOiLgbCR9P4YgVzIhH2kg4Z/szgsfu+isOhTCUkALsr/u1I+ORIsSRpupTnIRCjvnd58xRr43CqoPh1aSR8+ArD3DfC3S+GfyqEuwO9GqFoB71kL8yMkO9KeuMmko8QDMW3hzdxV28CUkbAI1kDU10OSpD3Cb/ogC4CNhzsuS7aU3lEgoCRL9rnelxJeHfmJgZAjnY4+uSk2PQ5kYkecmVQkvwS3ZpJGmJJs+v/r8gCtERasgb/KQUlN+v/rmEvvn/Ey+MxS+OKL0NgDnyyBvevg7WvhrABsTWeEzCBdn+FAkx65jbuq65hZX3ec02wKpLYWQmDa/WmP8LnAuqMcntB7f4y5uOyAn71yfwRywASgtvf+mOS6c6eE0vAS8Ot8vAcND0OwJGnY9U5xjhE+CEw6FX4zpp+s/x3pQwekDydPz4E3AhOfhaXAVQvgpgCf7j2mkgH2BMdFXHj/cyO3B7g/h/QIP3XZHK4Jc14bVgOBSAyk0yJjQpLr/XlPJJYARGIVUAdsD4Qtz4RnFvT+egXQMTzvSNJxyEZ4O3D+qXAlcPI++B8gl6ThrRR4cS78BtDwNKyaDxdcCD8qhRt6zzGGQ3qC41PMeXQ1d9SP0B7g/hzSI/zsWy7gqnAeDx3h8ED635sYk9h3f8xGYgboicTKQGgAdgRC2zPhmb7R3zJeHXHXKGUIliQNt7AvDVkB2AZcEuF3muH0TqiLcPE96afxtRvgaxEe7D12YYAXX4SOCH8OtC+HxnPhq0DbsVx4tPQA9+egHuG13BqX8KEwl8cPPCYSewCaYtO7InEcsBMgS/aFhOSq+XH+70bimYEwBmiLxB83xaYvAy9H4vweev58WVhmz5s0soR9UFGb3iN35aAswvu3wsTNUBLhsnvSkeLMSvh6hIWko8MPBVi/BjZF+Btg2xNw+gL4EtACEJ9mznNbuKVmhPcA9+egHuEVfO8oPcL7mmLT9ZE4IcklbQA5cquBd86P82+IxAmkHxR0ROK3m2LTPwTCqkicG4l/vzgs3jCc70tDKxS6AElS0SmLcDlwF1ANXEY6Le8+0v60PUBPgKdi2pd6DunKpwuBrTFdGfoioBx4MsDKY7zuOY//hP+uruOUurqhfUMDkSRQkkm/z+WgJzu48+3dC217Wbvg3VwNPH/ga02x6VKgMhJbA2HHorBoJZDMj/NfD/QF47YJYcLzv+JXYX6cf1UkVkbiS4vD4qcGV5mkPCiJ8AbgcdIR398g3Q7pfmAuaUtJB2nf8Jm9P8sBjwR4OaatD68jXSX66d4V+QGmPfFT7q2sZlZDw3C+nYMlCWQyvUO0EXp6Bne+1lZoaWbD/Cm8p/SSgxcTbIpNrwPGRuLOSGxZEpY8D4Sm2HRRIEwlnSGzr5baFxaGhR1NselaYEwkrl4cFj9JOstGo5QhWJJUDKYtvIXHJ01h6mB6gMMB87gP9+/9yWRg1Tr49g9h2074nbfDFW8Y3INeCNCyF7ZuZtObPsRFwKbjP5ukIjTpkdu4t66RswfzAWHo/cdx3x8TWL8ZvvVDWLcB3v1bcM0V0D3I+2NrK7y8lrYrb+Rc4OXjP5tOJE6HliSd0IayB3h/B2SzUDUm/ffdzTCmEqoqD148JuZ6HwAP+Kg5BNi1Jw3A774azjgNrv8UNI6FuWdB9jjrihHq6iHJMPW+W3n6sjn8dpiDo7iS+hWfYM6ja7ijftzge4A7uqCrG2qq0vvd7maorIDqMYfcHw8JyX3ft7TCTT+Bt74RFsyFqz8K48fCgqb0vns8+nqET5tJ9Z3fYVk/PcIqIoZgSdIJayh7gJOQjuLe9SD8/gegtBQ+/Bn45AdhXMOro7m5HJw8HXbuhn0HLNlVWpL2qfVkYcbUNDxf/9uwe8/BD4PH48Ae4cVr+V58lg+F8w7uEZakA73SA1w/+B7gJIFNW+HWO+AzH4eGWnjnJ+CzH4dJ418dzY0Rpk2Glrb0q+/WFwKMHwe7muHUGVBWDh9/XzpjZijuj8fYI6wi4j7BkqQT1dlPrhjCfYADTGyElevSEYttO+CiuXDemek0vtJSKOv96uv7LS1J/7209ytGqK15tSd4YuPxj3Acqm/V6LJKznjyGPYRllTUpj65buj2AY4x/TBwdzPs2g07dqf3xvPPS++HfffH0pL0flmSgbKSV++ZfffHMZXpMTGXhufsIHuCD6yvbx/hJ1/k5rjs6PsI68TnSLAkHbtzgd8BLgZmAf8J/DFulTASxdu/TraiikkNDUOzymkul05dfvPrYfM2eOY5mHlKOqo7fcrBx2azMHXiwSMYSQIr10JHR7rgC0BHZ/rAN5QaGiCb5dTbv8697/wUGUb2+h/twFrgMeD7HLKwlzQCVALXAlcDFwDLgQZgNq9u5zbaxO99ha6yCqaOGzc098cYoa4GrnpTOiL8+GKYfVY66jt10sHHZnPpzJpDp0Nv2nrA/TGk3w/13auuDrJZpv/vo/y89+wj+f440u0j7bF+HPgJr91vekQzBEtS/84DPgOcRBp8/xXY2Pva5wtUk/rRtoVLttdwT0UFFVVVQzASDJSUpFP1fvw/sHQ5/PAb8Mwy+Ob30wfJEKCtHf7wI/Do07D8pfR3cjmor4Xrr4X2DmjfB7XV8MRieOulB/fLDUYI0NYG27fR8eJi3gE8OkSnzqfppHtBfxNYA/wjsKygFUnpPrt/ALyL9OH+G8ATjN7ge5Df/TPOvPM7PFNRwZiamqG5P2YycNI0uOV2+P7PYOmvYfkK+PpNabtICOm978bfgRdXwROLXh0Bzubg0zdASGBvK0weD488nc62GaobZAjQ3g7bt9P5tku4Afjl0Jy5qE0GLgX+nnS3ga8CzxS0omPkpx+SdHQXAX9L+inntwpciwYoLue3Hl/OtxvGMaG6evAPen2Lt3z1P2DnHvjuV6G7O334O9DhRjogXVjrv+9J+96mT4YHnoA/vTGdRjgUtbW1wZ7dbFtwBjeG8/jvwZ2xID4BXAf8JaNsVEEnnH8i/YDmD4GtBa4lL+KzvOnJFdxSW8+0oQjCfR8CfvP78OP/hWd/lS6UVXKM98fOrnTNhdXr4azT4Y7/hc/9MUwc9+rsmcHUtm8f7NjOntedze+H2fxocGfUYfwu8CHSvafvL2glx8AQLElHVgb8G/AIcFOBa9Fxis9z7YOLuGnKNOorKwf/oFdeDl/7NpxxKrzl0oHt85sEaGmH9RvThWImTYApEwffFxwC7N8PWzax5w3n8eEwm18M7owF9VHSD59+DxiijkBpQK4DPkg6CnxCt7vEZbz18ee5qaGRyYNdPR+gvCxdHKu8DN551cC2fwsB2vfDyxvSQDyhMW01GYr7Y1cXrF1Dx5ua+EiYzQ8Hd0YdxbuB3wQ+DewtcC1H5cJYknRkFwJ1GIBHtXA2P790Fu9ZuQo6Owe30mgmk+5feffDcPH8gW9rlIvp9iGzz4Sm2TB5wtA84HV2wsqV8IaZvGeUB2CAbwPjgfmFLkRFaQzwYeDPOMEDMECYzZ0LTuP61avp2b8/XbvgeGV6V4i+52F44wLIDfDeFmO63dy5Z8D889J+4qEKwKtWwetn8i4DcN79hLRl4A2FLqQ/hmBJOrJ3Az8odBEavHAhd73to1y8ehUd7e3HF4STBDZshr/8B/jin6SrmB7PqHJf/1s2O/hRl74et9Wr6HjbjVwcLuTuwZ1xxPg+8N5CF6GitABYAawvdCHDJZzPA1d9jHNWrWR/S8vx3R9DSFeE/syX4RPvh4a645vCPNT3x337YM1quk6r4ary19kDPEx+ClxT6CL643RoSTqyh0iD8JZCF6KhEZfz248v51vH2yPct/VR30NaIb3SA7yL7QvO5KOjtAf4SKaSfgD1xkIXoqJzA1AD/AtDt2bdqBAX86YnVnFrXQNTj6dHOIR0tfuRcn+0B7hgJgA/Ay4pdCFH40iwJB3ZNAzAJ5RwDv+14Gw+vm0Lzfv3D3zEI5dLF3oZCQ94+/fD9q3sWXAuHz/BAjDAJmBGoYtQURoH7KHIAjBAmMfCi87khuZdbGlrG/jU6P+fvfuOj7rK9z/+Ot+ZSe+BQADpUpKQkESQgNgVwYYNey/rVbe45e7uvde7d/vub/e3+7vrruuuuqIIYldULBQLKKikEDoEkE4qCZA65fz+ODMQMBBIZvKdJJ/n45FFkmHmZDPfk+/n+z3v89E6fObHlhbYtZOmyVk8LAVwl6sABrT7KJtJESyEECcWa/cARPCpLN48NyM4GWE7HJMBHsVNKoM37R5TiMjxJ+wQSw9pg9QRrTPCTZ3MCNshUABv3QrnjGKWypQMsE3Cfv7uZm9tIYToUt2sPBKnSuWZjHDZFpo7mhG2QyADXLaF5hn3U6Am8KHdYwqhbvJTET2Mzfcx7RfICG/pREbYDq0zwMPjuDyyoMetkOlOwv5dI0WwEEKI3mrlpZOYVVNFxeHD4X+iF8gA11RRcekEbgBW2j0mIUSPtXlaPlfWHWDPoUPdY34MZIAvmsBdI65nod1jEuFNimAhhBC9lj8j/GB5eccywl3lmAxwRo/MAAshwozKZcnZmdxbW9OxjHBX+UYGWJZAi1MQpm9nIYQQomuoLN44dxQ3lZVBSxhmhI9kgMtgagY3qawemwEWQoQZlcEHk0ZyS1kZ3qam8CuEW2eALxwrGWBx6sLsrSyEEEJ0PXUWH0y/j4ItYZYRPiYDfB8FKrdHZ4CFEGFI5fHxFd8iY/MmmsIpIxxYAr21DPfgaC5XE2WFjDh1UgQLIYQQhskIV4dHRlgywEKIMLL5solcES4Z4dYZ4IsncufoGyUDLE6PFMFCCCGEn8pkwaSx9meEj2SAyyUDLEQXawIa7B5EOFI5LDl7LPfZnRE+JgOcwSOyBDoshf0u62GyoEEIIcLOgGd+yRf3PkY+pvG76EV0IdPeL+b90aMhIgK07rrXDpzgbdwE03O5TOXzQde9elipBPraPQjRQTneV9i3KRcsj91DOXVK493TFyLdOPrUgrbpPFk7SI7ax6Zh59rz+ienizj/3a9YPHYsjqgo8HVhV+XWGeCLs7la5bGg6149jIzXs9m7fio43HYP5ZtcXtzFY3DlbgS3w+7RtMEiJWaPFMFCCHEcXcTEpWt4NzmFPg2H2DFlJDPVRErsHpfocpM+eIZPhg4jIja2awrhQAb46+00T7uX8+ndS6ClCO7OhnxVw4SxyV1aIfUUlgWlxbB5ajifp4967ylWDxtOVFxc182PDQ2w42vcg2OY2auXQKeX7mDK8MHhe3wpoAuvHp8Oy4J1pTjtHocQQoQTXcrkojJm90+nT1IS1LgYUlrO87qYu1QuRXaPT3SplZdO4oaV63haa/qG+kQvkAE+UE3FpRO4n95dAItuz/Lg84Ev7FdFhqkwLSCO2nzZRK74YjPPac3A+PjQz4+tMsAPq8xeXAAD4HTL8dUZPskECyFEKzlfbWZOZCxnJiSYJV5JSWC5GPflVl4Ehtk9QNG1VCYLJmXxrVBnhI/LAD+osnvpEj8hRLfRVRnhIxngXZIBFsEjRbAQQhjpi5/l/dgEhicmHvuFpCSIjWfUshd4D0izZXTCNiqDN84dw81lZeZELNiFcOAEr6wMpo7hFpXFG8F9BSGECA2VxfuTzuTWsi34QtFHWClwB/oAj+MmNY55wX0F0VtJESyE6PX0KiYunk3pGUPon5TU9mOSkyG1H6OXzeVLvZKcrh2hsJvK4/3p91GwZTMtwewjHMgAb9lMy/T7KFB5vB+cZxZCiK6hcvnoigcZu2kjzcFsnxRYAl1WhntgBJerXN4KzjMLIUWwEKKX06VMLt7FnPQB9ImNPfEulz4fJCRAUipDSiuZo0vJ7dqRijCw8tJJ3FBTRWUwCuEjfYCrpQ+wEKLb2zz9bC6vrWFvMArhVhng2osncmfGLb09AyyCTYpgIURvlvPlZuZExDAqIaH9TT20PpoR/mqLZIR7I5XJgkkZfGv//s5lhI/JAGdKBvgEZMcXIboRf0b43s5mhI/JAI/jYckAi1CQ3aGFEL1V+uJneT8ugf4JCaf3D5OSQClGL3uB96bexrlIH+FeRWXxhl5F4/slvNeRPsKtM8CX5XGLyrBpCXRW/VuU7xgLjvArNpXLS0tRXyLy1qLDsc+k10HfvttZ33ea3SMRrfiA47umOvwfPv+f7f173epx2v85C9PxRbRLZfG+LuTWd79i8dgMrNPtI9w6A3zxOG5SGbIEust5OXoJ0snRW6bHH1+W/+vK/3h13GM9rR7naPW44zuHO/1fb2nj9SBkt2ylCBZC9Dr6KyYuXcs7g4aYtjcdabOXnAyWxehl8/jinKHMVJNZHfyRinClzuJ9YPIHz/Dx6fQRbtUHuGX6fXLRWKkAACAASURBVJyHnUugG0qmcV5OZPi22JgG+DLtHkWbLAeUFJ5p9zBEKz4oSFOcM8I60lzIsmBHueazcs3YVMWi7b4TF8L+fz8gTvFamXmc0wHnDLKoPqhZc1BLIXyKVD4fARkL/8nq4SOIPNX2coEl0F9/jWdEPFerfFkC3aX8F30uPEORM9Ci2QNf7vSxar8GB+T3UVww0jLXhRRUHNI8v0VDg+b8IYrKBlhXo8ENmf0VFw63cFqwrVrzVpkPfHDJAEXO0KNVrcOCdXs075T5eORsB69s9FFeb94smSmKJBd8Vq5DUghLESyE6FV0KZOLt/Js/4H0PVkGuD2BjLDXy9A1VTyvS7lLZVMc3NGKMLfi0knMWrmOp8C8n052oteqD3DlpRO4D7szwNrhxueL7PBBEHLhOi4ABdoK16sHvVMLzJoWwd3TItm1x4uyzAn2V6vd7F3ppSDLyaKNzaYIbvQXtPHq6Mm1B87Pc3LBxAhWP95A2X7NLZMczLoiimdfa2LNAa+cNZ+eTdPP5vIvNvO81gxor49w6wzwJRN5SPoAdzFtPn5wiYupEyM4IwEa3XB+nWbpshaeXORm5g2RfHtmFNt3enBYUNUEeWUevvf3Zu68Noq1O3yse66Jey5ycsH5kYxMVkQ6YG8DTNzg5j//0swjj0Ry7qRIdu/zopS50PTeCjfvfNrM4/8dz5mvNvLdfzaDBZdOjWBksuKzJxohLvhXoORwFkL0JtlfbmZObDzDTyUD3J5ARvjAAbL9GeHpwPZgDFR0DyqTt/RaHJ+W8syAASRFR7f9vmqdAZ6azbdUlmSAhQgqBYeb4cMVLcy6qxGG+D8fCdMmOWlp0eDWPHiRi+mTXLg9cP3jTeDTR5Z1/uFjN+PHOLn3Ahc/nd3MBVMi2LLFw2uFXoi185vrnlQOS3Qp967cyL+UIj0+vu0Lz60zwBfmSR9gW3jhqpEW08+NZMnKFma+3ALR8Ne7I7lgaiSvl3qpb9F8WtjCVTc2QDpcc5mT22dGkXGmG48bPB4gXnHblZFs3Oal4GfN4IXbL3IwcojjyAWnRZ+3MOt7jZDEMRejGlo0SUkWt05yMHeZB68XvN5OnqidhGyMJYToLdKXzOb9uDb6AHdWcjLExDF6+VwWIn2Eex2VxevnjuWWE/URPqYP8FjpAyxEKGkN7NPQgMkeWtCvr8WIYU5uzHdw4eQIFq5ws6TUw+c/j4Zq/0m2BZ5D8MYnLeRkuph+fgSZgx08OqcZom38hro5lc37k0ZzW1kZ3rb6CB/TBziLm1UWc+0ZaS/ngewRDtKiNb99tQXiAAWPLGhhYKrismEKn89/fJVrqIY+yYq0OMX6GrOywqc1V41zUF6veHWp21w4cmnmvOzhZ79shijzUloDdUAjJgdsAS5obtTs2uWlIN8FztBnD6QIFkL0ePpLJix5ltWDBpN+oj7AnZWcDClpjFk2ly+kj3Dvo3J5b/p9TNm8GXfr9kmBDPDmTbin38dklSt9gIUICQ2xLrju4ihq6pKp/SyJHe8k8uDlEbS4NR4vZI1ycGYKVFX4cFd7IcKBc6zj6CZAkTB/iYftOz28/JMYJj5Wb5ZPy9lyp6gcll7xLTI3bTq2j3BgCfSWMjxjk7lC5fGmvSPtxTQ4o5Q5Fg7po5tZVUJqNCREQpQTLpsayd7KJGo3JPGDW6O54PEG2OVDKVPcpsUrqus1VU0aIuDpR2PY+XEiB9cnQ4JFc4vmmkujqNmURO3yJPYvTuK317mgDpwOxX/9qYUzBzq4/zwHnhDeBQY5rIUQPZwuZXLxHl7obAa4Pa36CA9dU8Hz0ke4V/p8Wqs+wpZlCuCaKiqnTeR6YIXdAxSix1JQ74bXFjeRkniApCm1DLmijiffbcHlMFWXVtC/n5MHro/klqui2L/LTaL3uA2vkhS/+MjD2q+9sM0nwcHg2TR94tE+wpZlCuAqkwG+c9DVvGv3AHs1CxrqfLQooL+/GHZDxhDF7jqoOAxNXnh/WTMD+taSdOch6pvAXa3B5X8KBevLfQxNVQxJUNAE9z3ZyOCxdWzd7YVoiHQp3viwiZTRtSSdU0v/i2v56WtuSMQch1Watz5p5uppUTR5IJRlsBTBQoieLPurzTx/qn2AOyuQEcZ1JCMsfYR7GZXJW5MyeLC8nNoDB/x9gDOkD7AQXU4DzcAh81cFHKjRFG72MO3uBi68p54VW7xUt7HzbKoTNAoiunjMPZy/j/B9tTXsP3AAdu+mqSCTR1Qm8+weW6/nhE82eak6DI/fHmmOGwt+ck0EFdVeXi7z4VDgcgLnKqj2UrLFw/z7I6EW0KCU4vO1XnSL5t7roszxV6G5+D4nfZIsOMDRC06BdmRuzEZ1gdUYfeCJdzy4WzQ3n2Oy+6EiRbAQoqdKXzKb92MTGBHsDHB7jssI9+3EU1lAFhAZnJGJrqCyeH1qFrdv20b1OdncrrJ43e4xhQ0v5sSo9YcXczJ0Knst+457XODfhfgCl+gGNCRGK2ZNi6LuUDIHVyRR/0USi/4SS5Nl7jz+ebmHrft9FL2bwJp3Eqj1qTbfO04LIlxd/y30BiqL9yaNNfPjBbncJhngMOGAL/Zp/v5aE/37O9jzagLbnk6gyad4+s1mOKxxuRQRLn8VG6tYtLyF5P5Opl/mwOEEp79n8P8808j2A5qvX0yg4sNEfnhTNI+/1Aj1PjQwa3oUdVuTjhyj7/w+FvooIiPwb5QF1/y5kfwxrpBWqtLxTAjR4+gvmPDRBt4ZOJi0jvYB7izLgro6qKlk+xTTR7j0dJ9jvB4/UqH+5MP3EyfOSi9eLKw4jT4MeItVcU2uzo0CEopVcRWgcnXuUIWyvHj3rVarDwf9GxM9x7CVh8jNiOuyPsE+OKef4uyhFtp/9uFQsG2/j6+q4cwkxZIdJ+njqmFCsqJvgmLh1+agHh0LQ/tarNzno66FrjursRywerWXrVNlseyJDCmsIP/Mvl3ah7oeqNDfuIN72w0RnJvr4oFf1UOEgiZtit941fYlRg9Qq6GPTafJlgPWlsDmc+U8XbQtfX0ZBYNGBP34cgMN2mxapYAYIFqZWEAj0KIhUR197GFtjqNGDS5lNr/yYv5ej7lwGQVEKbPB3CHMZnStLzLFY1og7dUwyP/cXswGdynKjCGYLAdsKJWkgxCiZ9GlFBRvZXa/AaSFMgPcnlZ9hIetqWKOLuIulXd6fYQVqsDCmgQUABMVqg+wSqEiNNoCfqZQEzT6TuC7uTr3DuACja6zsBrG6rGPblAbwrnZquhNPHDL5ZHcfEEEe/Yd7eP62So3NcVeJo9xsmSL6Q9Jo3+JatyxfVzzRjq4bnok8a818dIXXq6/IoLxY51seKqRumYtl/Z7u1hgWKs3gQ9GpiiuPtvF5v0+c+IdC8S280ZxYl8BLISdXJgit60VdNGYgrj1Y5P9f49v9XkHZu6Oa+M54o97bGuDjnuOQaE9BmU5tBCiJ8n+ajNzuioD3J7WGeFV25jHaWaEFeotH76Vxar4OY0uV6g9Rarot8AehXL7H+bFXJ+NVKjvFaviWcWq+H6FGhZJZEZwvyMhOkHBoWbNwmXNZF18mMw7DjPmtsPc+2QzkQqamzW0aB650MlbP49h/k+izfaxgcs4TvjHZx7WbPJw4ZQIIvorphVE8PqHzeys/GauUwiAGBdU7PHwwactx57ACyF6NfmVIYToEA0/r4dltLF3pobcvfDrLh6SbRng9iQnQ3Q8YzqQEXYqlBNwabRTowNLqlsvGNUK5QXSgcF5Ou+zPJ23wnfQd5FCSREswosGnwZ2+/u4egEF6Wmmj+udBQ6mnB3Bws/dfLnFyyePRUON/2qWAlzwg5ebGdnPYulPY1lc6ObFFV5JzYu2WVBarnl4dguf7jzJUnshRK8jy6GFEKdNw4gNcNtYOB/waEjFfLQo+BqIWQ+D/Y9NBNIw93R2YtJYsUB/TMeK3Zh26R0fzwrOWrKJdwfZmAFuT3IyWBZjls/jiynDmakmtZ8RViilza4tXo4Wu2ASa4HTuRiNTgAqFWpXoSqc4v98FNAU5G9DiI7TEBcBN02P5vK6KCwLag5pfvN8A40e8Hhh3CgnIxLg5XIf6S0KFWXBKAdU+cxlewuo0yxe7eHfZ0Vxzh/qZQdfcXIWwc8UCiG6PSmChRAdUVAPycADGubuh5/0B/019NHwT2C/BV4NMRp+7d8OIboJPo2CZ2vgRykwFPOYdQr+1NGBBDLA6TZngNtzTEa44tQywhrtBlx5Ou8qH74k/11hNHo9cEmezrsWkxWOBeo0ekGeznsM2AGc00TT99er9bI5lggPCg63wPz3Grn9ykbI9m9KFAd3XWEqWa1g4AAH/3ZjJC6nonyPh2Sf5kDgOZrhpslOLsxx8su5jbz7cAyX/7reLJmWtW1CCCFOkfzKEEKcNgVvpsJ6BY8B9f3haQV3D4XfA3cpc0dYA7ErIUfBnxXcEglfaTjbZ1qx36XggTLI1TCmg0MJqwxwe043I1ykig4Df8Dc0X0V+ASgWBV/aWH9S6EiFGoR8EdAF6mi/1GorUCERv9LCmAR9pqBw2ayUGgOHPDx5UYvl97awAUP17Nik5cDFf68rw9iEhXTzotgaaGbP73ewsFDPp64NdIsrRZCCCFOkdwJFkJ0hMvrX46r4ICGO3bBT7ZB4nCoIHBOC1UF8HgJ/D0RIhXM0pD+NdywC3K94NwLkSNhALDxNMeQvnQ278UmMCAhIbjfXKglJ0OdZTLC59zKuUDlCR7qK1JFH7bxeW+hKmzr8y2FqnBe8EYqRBBpSI5R3HZFFFcejEQphcMBn65qYc4qLw5L8ZuPPfx1mJOiDxOwFDz+TvPRPq4eeGy6i0HJirufdoMFb37cwk1XRHPbZA8vFHqPbbshhBBCnIAUwUKITtHwAJB6BlyhTUb4h5ibngpTKC8aDy8DQzbCcuDms+BZZR4HZkFk82m95pectXQD7ww8g37hmgFuT3IyWIoxy+excuJAZkacxxq7xyRESEXAA4838cAvG489+9Bwx/URZsY4oHnkr03gbjRfi27VxzUCfjq/BZqbTfuNKHipyMtLnx+CGCUFsBBCiFMmRbAQoiNUk9l4CaAKyNJwTRVMjIIUDbmLzALGPnvhTxo+wBTEyxWsLYFrNHwHaN4MaaNNJrj+VF5Yr6WgaAuz+6fTL5wzwO3x+SAhEbw+hm+s4wW9mjtVDiV2j0uIkDq+R6sXRqUqZp7tonSnz2xyFQsnbPgbiVlTEuACXNL2RgghxOmRIlgI0RH1WfAL/3+/jcmsJveBvwGFQNUl8JSCcg1/AcYBPgWPArU55nFTANcoc5f4lApgIHvVJp6PjmNkV2eAlQKn05ya+zR4vZ1//UBG+MABsldt4UVgBrA9CMMVontQEBupqNjj4Z1PPRAlBa3oZlQb79lw36BCiO4ihMeXFMFCiI5oVvAGmEwwppANeLX1AxWsxHy0/tw2zMfp6L90Nu/FxAcvAxyYW7U++t9KmQ+f7+g8qxQcboD/fQb27IcrLoKLz4GIiODMxYGM8GfzeHfKLZzHiTPCQvQsFhTv8/HgMy1mbYn0cRVhSfkXJ7T6E8DjNr29Ar8wAr9AnE5wOf2P0/5ce6s/hRCtdOD4cjqPPYnrwPElRbAQIuzpleQv3cS7wcwAKwWNTeD1QXwsNDZCUwvsq4CmZhg1DOJizWMtC554DsaMhEfvg9/+DUYMMX8P1gX/5GRQirHL57HyzBhm9pspGWHRS1j4l0ALES78J+M+n//DC40NcLixiUZdS723gUalcUU0otQhtK8ej68BpxWNsmLRvnjcnmiivBaxjmhiHInEuGKIjTe/UCyH+RPkrrHohQLHlzbHls8LTY1wqLGJRl8t9Z5GGi0frshG0IeBw3i8DTgdUSji0CoOtzuGKI9FjDOKWJVEtCuGuITTOr6kCBZChDW9moKibcHPACsF23fBMy/Bz74Hr7wLMVFw4WR4/X14/T24ZhoMGWTu+G7fDT98ECJd5i7wJ1/CqOHBGQuY7ysxEXw+hle4maNXc5dkhIUQogspf3O/lhZorof6OmiO20LtiA342E09hVSp1cDXQPUpPGMSMJRYPY4+5AJDSf56NJF1Y4iNs4iMh8gI/+tKMSx6uNbHV0uDOb4aY7ZycOR6vOylkVVUqBLM8VV1Cs+YCAwl1ptFHysXzTBSdowiom4scbGO9o4vKYKFEGFr23NkF27l+ajY4GeAfT4YOxKmToQnnjfLnR/7DkRHwQO3wK59sGELLPzIPKa5BdDmwqXTCXv2BW8sAa0ywjlFW5mHyQh/HfxXEkIIcYRSgIKDtXCoCpo8+zg4cT7wFV42s0ut5TS7GPjVAiXUqxLqmQM4qdQZpDAGRRYpa28ksmUUcSmQkOxfPS3FsOhhlAJlQV0tHK6CZmsXh3LewssKfGxhp1qD2VvmdNUBq6l3rKaeuYDFztUZnJE9Fi9j6LPmFiJbxhCXAokp3zi+pAgWwZYF3ARMAs4EngG+DbTYOSjRLel1jTC4LwOTk0OzC7TDgok58Mhj8P4cUwBrbf5MToSS9bB4OUwcfzSKAv5oihX88QSkpkJlJWNf+TOf3vAoFifcKrdbOIzZ7GsF8Dyy8ZcQIlwoy0zodQehcg+4XZ+zM/93NLAa1H6Cf+7ioUGV0kAp8Cq79JNEksGI9T9m/66LSRsMSYltbwYkRHcTuPN78BBU7oUW3yq+nvQrmigEVUnHLiydjA9y1rKLtQDs1c8QyWhGbP4h+0tmkDYEkpOOHF9SBItgyQR+DAwDngKe5ugdrF+c4N8IcVJXFDB9URFvR0fjiIkJ/gVyrw/WbYbrpsNfn4O//hyqa+FfL8OmMrjnRvjv75q7wEuWQ/UB6NfX/DlhXGhWsCkFhw/D/nI8NzzKLI7bVKybGoHpIT0fKAH+AJTZOSAhRMj5LxX6N4cKG/48oscDB6thz8EaGmI+YW/B9+nalTc+UHtpZi/rWQwkULf2SaJqLuWMhFR84fT/mQg/Pv82gmF6fHk9cLAO9tQe4HDccvad/SNgUxePJXB8fQREUlf6NFE1l3FGQh+8ulvfXRDhowD4NfAipgAWImj0GmZ9vp4n+6aRHMxC2LJg6w7401Pwqx/Bmx9AQjxkjYLKGpiUBxEuc57kdJo7wm99CFdfAu9/bPLBaSkE9TwlUADXVFFZMJZ7VDbvBO/Zw8ajwGXAD0E2/7LVsJWHyM2Iw+e1eyTdj+WA1au9bJ0qNxNOZMjGLxkeMYGYWIiIOrqDq52UBe4WHw0HLarrv2bPuA9oUH83d37DxgjS9feIoz9b1A12D0aEqYG7FjOq5SJi4sLr+PK4fdQftKip28Ou8e/hUU9SR6G9AzvGENL1d4ljgBTBorNiMX1gP8EsdRQi6PRabv64hKcGDyY2MjI4hbBlwY7dpogdOQT2V8LecsjNMs9/TIskzC796zabu8L9+sKg/kc3HwwGpaChASrKqZ6SxX0qizeD9+xh59tABvBvdg+kV+stRXAo+kxKEdy+fno8kdxFSvFNxET0JaWfRUQktrzfLMtM4jXlbg7XH6Imfz41vMJh9XHXD0aIIBj5gwwa/ngvaSU3EuMcQEp/iIhUth1fXh9U72/h8KEmaifMo5o3OKQ+7PrBnDopgkVnXQzcBdxm8zhED6eLuXpRCW+OHBm8/ryBItbnM+fJljLzeFsU5rwXjhbJwaKU2Sxx40aYPoEZajzvBe/Zw9YHyN1ge/WoIvgEfSbdbvAe12fSssDh6FwfVymCT5UT9Gj6lc8isfS/SUlvpE96tJnEfSHsm+t/HygL3B6o2tPCgcoIavr9HyoyXgS1HtmrRHR/DtCjSDt4PYlf/jcp/VroMyCGSP9JUsjuDrc6vjweqNrr5kCli6qEP1GZNxfUOoKf9w06KYJFZ/0N+BB4y+6BiJ5v3YtctruRd4YNC01G2A5KQX09bNuOZ/q9TAG+tHtMXeRWYBzwE7sH0mt15yI4cHc30MdV+6Ch3t/H1VdHvbeBJkvjdDWi8PeZ9DXgVDEoKxafjsfjjibKp4hxRBPrSCQmIprYOFD+HpMn6zMpRXDHRK/7Nsnu20hkAGkxg4hPNCfSDmernQeP/M8pUkfPZrU2WcTA+2H/wd3U6QqaUl6iesj/Ce43I0SYca54kLTou0jQA0mLGUhCkur88cWxu4J6vaD9fbP31e6hTlXQnPYqVQN+D3SrXyZSBIvOWg5cD+y3eyCid9BruPHz9fw92BlhO/SSDPCJnAE8B1xo90B6re5YBB/pM9kMzf4+k01xW6gbsREfu/x9XAN9JmtO4RmTgaHEe3NItfJQDCZx22giD40mLl4REdd2n0kpgjtrEoP0THTVaNKqRxDjHkdUNDgiwBllNmJwnMLG+F6vuRPlaQZvMzQ3QaNaz/6Uzej+O9irXsOcp3Tj3xRCnLYJDNJXo6szSasaRow7m8gohTPSf3w5zGqYUzm+vF7wNPmPr2ZoVBvZl7gJ74Dd7FevAp8CIejfEXpSBIvO2o7ZEVqILhOKjHBXOy4DfL/K4g27x2SDbcBwuwfRa4VzEawcmOXJ/nOr4/u4tji3U5P9GhbFuNnEHrWG4CxvdRGvM0lkDA6ySSqdRaRnBHGpkJhkHqG1FMHBkwR6DMmMwMFw+ldkE1mVBfWDcUTEYGlQyodyaJR2oJUX7VVobaEt8DQ3QcxOPH3WUdFvLc1soYatoDYB1XZ/c0LYLBH0aJIZiWIoAytziKjOgkNDcLhiTQNG5UNZGkUbx1dTs//4Wk9V/3U0sokatvmPr0q7v7nOkiJYdFYFkGb3IETvo4uZuaiEN4KZEe4qx2SA85mh8npFBrgtMn/YKVyLYOWAyk8h5gyIG242UjpYBxV7wBO9jO3jf0cza/x9XN0hHIkDdDrRZDF07Y+x6s4n7QxITDR3UUpKpAgOLgtIAB0HxACRQBoRJBFLLFFE0ISbeuppoRZzEt4ENIA6DBwCPKfxejdh2rYJ0VsktTq+IggcX9HEEfON46sKaMQcX/WY4+t05tuwP76kCBadVQn0tXsQonfa/jqXbT7Au8OHY0V3k6XRgQzw1m14Z9zHFOALu8dkI5k/7DRsRT25mTFml7cwOnisCNjyBET2hbjzYVdNDc0xH7N7zHeB3TaOrC8D1/2N6OaLOCMxhR27YNv5ch7VfdUBiXYPQogeKuyPL7mCKYTotoZdy/t6Dbd0l4xwIAN8oIrK6RO5h95dAAvbxW6ntiqTmDhwRR5demynQB9Xd7NF1Z59MORNqoY+gZu1dg8NqGRP5ixgNPX6e8QPT7J7QKJTZHdoIUIn7I8vuYIpOkvu5Ajb6bXc8nEJ/wznjLBkgNsk84ed0vQEormTlOJZxESmkNLPgSvCxj6uHqgp99Dgq2Tj7w7iqXuWlrd/3/WDEb2EzD9ChE7YH19SBIvOCvs3uegddAkzFxWHZ0b4mAzwWcxQub02A3w8mT/s5wI9lvSdN5Kw5T9I6ddE6oAoIlxd2MfV3aqP6+DfUTHyWVAPAUuAt0Pw4kKAzD9ChFLYH19SBIvOCvs3ueg9di1g+voq3hk+HCs6OjwK4SN9gLfhnX4f5wAr7R5TGJH5I9zEb3uUhIO3kqjTSYsfQFy82ajK4Qh+H9f6w1B+aA8HdTn1KS9yYMgfW/2j32OOFVkxIUJF5h8hQifsjy8pgkVnhf2bXPQu/j7CT/ZNI8nujHDrDPCk3tcH+FTI/BG+pnCGvhZdOZK0AyOIcWcSGQWOSEyvydPs4+ptNr1cm5ugwbGW/cll0G87e9XrmD6ux/sD8DlSBIvQkflHiNAJ++NLNsYSQvQoahwv6fU4Pi6yNyMcyABXVVI9JYtvqSwpgEW38hm71GdACrv1aFIYSTQjSKkYR2Rlpr+PazRKg2X5INBnEi/4FNpn4bPA29yIjtlFS591VA1aQzNbqaHsFPu4hsFaDiGEED2RFMGiMwb88+c0PfAzkoEDdg9GiACVwTxdQuOiYl63IyMcyACXlcH0s7hDZbGw61692+jnnz/6YPoRivBUA2oFNawAHOw50sc1FogC+hJFEtHEEEMEDbhppJ6mNvu41gFh1pRYCCFEbyTLoUWH7FvIWRsqWJiQTF/loTT/Om4ANts9LiFaq/iA6cV7ujYjfCQDvBXf9PuZgmSAv2HlH8j2DGRBVCxD3E2UFS5k5iPPsc7ucYmw8kdgGfCW3QMRPVbYL9cUohsL++PLsnsAovvRa5iyu5H5/QbQNz0dnNFkb1jIHL2csXaPTYjW0qbx3qUTuKWinNqGhqP7+oRKIANcXUHVZWczEymAv0Gv4ayoUcxLSmVIejrEJTLyvOuZq4sZb/fYhBBCCNE7SBEsTkvVQs5atZnnouMYkZAAPh+kpEALTCyqZD7Qz+4xCtGaGsdLkzN5eM8e6pubQ1cIBzLAlRXUFGTxgMqW1i5tGFNYxhxHJJmJiWb+SEoC7SSnaDtzgeF2D1AIIYQQPZ8UweJ0pJeUszAmnhGJicd+ISUFXFFkf/UKC4BUW0YnxAmoLOadP47bt241Wd1gF8KtM8DnjOV2lSU72rah36cv8G5UDGOSko79QnIyRMSQ8fmLvEOYL58SXUYhG2MJIYQIESmCxSnZ8TL5i59l9RlD6Hv8CWxAaipExjFx1assBUZ16QCFaIfK4Y2zhnD5li3oxsbgFcKBO8CbNuKbcT+T1XjZBOt4C/6D7E9f4Iu+/RmenNz2Y1JSIDGVsZ+9yOc/nkJm145QCCGEEL2JFMGiXbqEKRUOXkofSN+4OLOEsS2BpdGuGH9GeKVkhEV4SbmQhcHMCAcywFXlRzLAK4Iy0B5El3DW4LOZl9yHIfHxJ58/EhMhIZmRt/yYebpUMsK9nGzcKYQQImSkCBYnVbeIswq3Mbt1BvhktD6aES7ey4tIRliEepU/jQAAIABJREFUGTWO+ZMzeWRfJzPCR/oAmwzwtyQD3KYxhdtNBjgpqf3dubU2GWHlIruoTDLCQoiQctk9ACF6sLA/vqQIFieT/tVuFkbHMfL4DHB7UlLAGU3Oqld5C0gJyeiE6CCVxdxzx3FHRzPCrTPAU8Zyh8ri9dCMtFvrt2wu77SVAW6PZISFn2SCRSg9YfcAhOjBwv74kiJYtKn0KfIXz6bkZBng9qSmQkQsZxe+xlLgzKAOUIhOUjm8Pmn46WeE28gAvxvakXY/z97FuGVzWZmaxogTZYDbE8gIf/4in03rJxnhXkiWQ4tQu8PuAQjRg4X98SVFsPgGvYYpzSm8lD6AtJNlgNsTyAg7o8nZsJAX9ErGBHekQnROwnmnlxFWCurroapCMsAnokvIH38NLyalMvRUIhQnEsgIxydz5h+eZq4ukoywECKodiIrTYQIhURgv92DaI8UweIYLUvJL9xy6hng9hzJCGsmFu+VPsIi/JxqRvhIH+ByagoyJQN8AmOKtjHHeYoZ4PYEMsI4ySnewQtIRri3keXQIpRWAZPtHoQQPVAOsMHuQbRHimDRWvqnO3ivIxng9qSkSkZYhC+Vxdxzs0+cET4mA5whGeATSFs2l3ciYxnb0QjFiSQngyuaTMkICyGC6C3gdrsHIUQPNANYZvcg2iNFsABgxZ/JW/xs5zLA7ZGMsAhnKpvXp4ziiuMzwoE7wBs3omfczxSVIxng4/3iXMYtm8sXnckAt6d1RjgOMkLzKiKMKOROsAitJZj32RV2D0SIHmQSMBRzkSmsSREs0GuY7BrCS+kDO5cBbk/rjPC6hbygV0hGWISX2Cm8e+nZRzPClnU0Azy9gKuBz+0eY7jRpeRf+YPOZ4Db0zoj/PnbzNOrJSMshOi0vwCPApfZPRAheoAC4L+At4Fym8fSLimCe7mWZeQXbuG5qFhGhvIENiCQEXZrJpbslz7CIvyoTJMR3r+X+tpaqKzwZ4CzJAPchjFFZcHLALfnmIzwNskICyE67RPg/wG3An8EzkciW0KcjgRMtv5nwHeAV4D5to7oFEkLgt4tffFsStIHkJaQ0PUvfuAAtNTzxVnXMwOo6foRCHFiupQb3l7BP66cxF0qhwV2jycMpS2by+fJfRgR7D0ETkVtLRyuZX3BTZwPVHb9CESI/S/wAbDQ7oGIXqEfcAmmCB4JDABmAw8BLbaNqudSmI2TxtJ27MEBfAVMALwd+LroGk1ANbAVs9Hcm8BuW0d0GqQI7qXe/hl5MUNZOGgI/WJjQ38Hpy2WBdXV4G6kJP9abgDKun4UQojTdXs/sr71Zxak9GVYYmLoV5C0xbJMIXywhs0FN3ENsL7rRyFCSIpgIXq2aiDV7kGIDnPQzS9AyHLoXkiXMDk9h5f6D6RfXJw9BTC0yghHMX7De5IRFqI70MXkf/+fzE9MYVhXRChOJJARjktkVKnJCOfYMxIhhBAdYNNvDxEk3boABimCex29jPyibczuqgxwu+PxZ4SbfZwtGWEhwt6You1dlwFuj9aQlEwgIzwXyQj3JLI7tBBCiJCRIthGGn6h4V3MkoLjv5ZfCz8P8kumL9nKwqg4zrQjw3cyqangiGJ84Wu8yeltSuGKIGIMEBGioQlhCw0/ccNSwNnG18YdgJ/pNuaOEEpbPpe3Q9EHuLMCfYRXzOdtTq+PsIogIgOIDNHQROdIZEsIIURIfOPkSnQNDUNL4a5syAW8GhIxO6y1KLOtePyX/l66GuKAZAAF+wCPhmhMsehTZlMYz8le77kHyR14Nu+dMZg0uzLA7UlNhWqYVPg6S041I5yrc4dr9GMa/ZgTZ7UXLwoVrdFNFpanSBUdztW5kUB0sSquBaw8nddfoazJanLl4zzeHPJvTIjTpOGMrXDHCLgSc7wnYOYIt4L9QNxXMPIScyjH4M9V+eeOFm2Kuj6tPnfS+aE9wyFr9gssSEmzLwPcnpQUsCwyPp/P8sk3MROz6cpJjdfj0xXqFxr9H06c5V68GogFGgBfsSo+lKtzXUBssSquA3Suzh1gYVk+fFXFqrgptN9VryZ3goUQQoSMFMH2mdZkCttva3i5HH7cD1xlkKThT0CDE9waojT8TkFSPcR64XUHvFINP001Oxj6NCxX8OSJXkiXMrmwjOei40wGOBxPYOFoRri62mSExyRxlypgYzv/7BIL6xLMHbOpChWrUKuBWI1uAH6pUOdr9Ezge3k67z6NvlijG5br5XtR/CjU35cQHXBBLfQHHtHw12r4j1SI9c8PjwP7XaawjQJ+C/RphqgmWBwFTzfADyMgy2kusBUq+HNHB6KLyS/ZyXPOSHszwO0JZIS9XkaVLuDFcUO4U+Ww+mT/RqEuVD51kbLUJUCW0ipNK70BaNboSOC/FOosjb4f+G6ezrsWuFajDwEV4/S4f1+j1nTqAoMQQgghup4sh7aJgnnxsEnB/wDufvAvBbeMNCe4tytzx0cDSasgQ8HP4+AaC7ZomKohVcEtCv5tBxRoGNHW6+hl5BeVhU8GuD2nmxFWqFeAj4tU0b80utLC2lGkin6lUHsVKtDWwA00Yu6OfadYFV9TrIpvtbDyz+bsoSH9hoToAAWv9YVSBY8CLakwT8FNI8188S1lVoxoIGYF5Cv4TRRcFwklGvIPwlCXmR9uK4OJmg5vOjem+GueD5cMcHu0NkujcZFTcgp9hC2s17D4vEgV/cOHb59SqqpYFf+XQu1qNX94MfOHC/hpkSq6tkgV3aZQwyyszNB+R71emL/jhBBCdFdSBNvH5fPn+fzLFSfXwCt74CccXQZmKdg/AZ5bB0+VwycKtgEpu+GaGvh4P3ywD7KB9DZeI2wzwO05jYywC7OiIUKjHR48Jf7PH//e9gED0YzI03mL8nTeEu8h78T6pfUZIRi+EJ3l8oFTg1OZNhLja+DVvfBL/PODz7zHawvgb2vg8f3wqX8uSdgDV9fAR5WwvAKygDM6MIa05XN5OyKGjHDLALcnORmc0WSdQka49fzh9OAp9n++9fyhMfPHAGBgns57P0/nLdEN+gKFkiI4dCQPLIQQImRkOXQY0PAwEJ8CN2i4CrgFs8w5cBLwWiY8B2TuhGXAd8bD8wp+ij8TqMydiiN+exW5E69l4aAwzgC3J5ARLnqNxXnXMYsTZIS1uVngBXDgCGzZ7tVoh//r0ZicXxWK7UWq6BKAPJ0Xv/bCtYdC/X0I0REKtDKH7p3A8BS4XsM5wH9ztLWEAt4ZBy8Co7bAYuDWfJiv4PuYPHGsMhnX05G5bC4LUtIYHq4Z4PYEMsIr5rPM30f4GxlhffRGow/QFlZg/vBptOV/TBRmX4ZqoLzV/BFXrIoPh/r7EEIIIUTwyZ1g+1jNR3ckrQUSNEzbDxdpSNOQ4QWlYUAV/F2bAjnnDChWULQKYjTcreGe7fBdzOY4gMkAX3wXL/cfQH87+wB3ViAj7Igmd8N7vKA/b3NJZ4tCxYzX4y8B4i0sB4AP31ogJ1/nX2JhXaBQ8UANsCRX5/4gT+ddr9H/D3MnSIhwo5ogUps5+hBmb4DLKmDGQUjUkOM1BXCfPfCUhlka8kfCagXri0zxe5+G29bCjzBF3CnRpeSVvMX8pFSGd4cIxYkEMsKxiYwuXcCLuqTNPsIewJGrc6dpdJKF5QTw4dtkYY3K1/lXKNQlCpWAmacX5OrcH+fpvOuAP2br7G52j7zb6aa/vYQQQoQ7WW5knygN1ymYqyENmIG5W/k2cB6wF7McepGG8zFLnn0KXgYq/Bm/8zBLqpcqzAZSehn5RZW8GBnb9UuglQKn07ypfD7w+oJXgFdXA26Kx89kOmbJZ4AzT+ddrtEKaFKo7UWqaBPgzNf5V2J21a0EDhSqwlU36Bvit7HtWo2O8eErLFElnwVnhEIEVaSGq4FXgCTgCsx7+R1gKlABeBV8pGEykIeZH94Edmuzad4FmAttHytYe4qvO6boDV5zRZGRlBzk76gdSoHTYf4M9vxx4AB4m1ibew1XYyIlR142T+fNAGJ8+OocOPYWqsK1gCNf51+GmZvLgbo4FVf4CZ8483X+jRod68O3ukSVfBKcEYo2/BXz+/ADuwcihAiJSk6vpZ0QQSVFcM+SvuQ5ivun0y8hIThPqPzvkMDJqFLHnpgqBZZ/PcHBw/D4s3DwEFw8Fc49G1zO4J7IuhtYmX8dl2Pu6gohgidt+Vw+S+rDyGBdQGtr/lDKf6FMH/v5+kZ45kXYWw7nT4YLCiAyInjzR20t1NexbtKNXIA5+RLh7W/AW8CHdg9ECBESUgQLW8ly6B7ioQzGL5lN0aAz6BfME9j6BmhpOXryWu9PFgYK30OH4avV5sT1b8/BmBHw7w/Cex/Bnn1HT4KDITUVXDEmI8wJdsMWQnRI5rK5rEhJY2RykO4AB+aL5uPmjw1lsHoDNDWbecSywOGA2S9DciL857fh81Xw9a7gzh8pKRCfTOaK+Syj47tlCyGEEKIHkCK4B9ClFNz9K14JdgbY6YT/+xS8vQRcLthfCbMegha3KXo/XgH/+Uf4ejc0NJqT2+svh7Q+cOm58NHK4C41OC4jPFd/KieyQnSWLg5NBtjpgH+9DPMXmPmjshquvBeiI2Hp5/Drx6FkHVQfgLpDsHk73DwTUpLM/PHxF+D1tv86p+q4jPD8E2SEhRBCCNELSBHczelV5BeV8Vx0CPoAe71wx7Wwaaspcj9eATOnwfad5uRWKfjxg3DTlRARAZU1pgD3abMMetdegr7gvnUf4dUHmIfJ7AkhOmZ08Q7mWBFkBbsPsNcHN1wOG7bA4XpYUQRXXQyjhsMjd8JdN5g54skXoHituTOMf/5wOmDP/uDvinRMH+Ed7fcRFrYKtAoUQgghgq47tki6ETgXGAsMAv4FPAi47RyUTXyL1xDZrx9Dgn0CC+b5+qaaOzQ798D6LfDQHbBtB/x9DoweDhedc2zGr3UGMJhLGY/Xpw9UlJP70p9YduP3UXTffLsG6oHtwBfAHMymaKJ7OhMzR03EbE71POE7P+l3/4nDcjE8JSU080dqEuyrhK07YNtOcxHN44HoKLNi5N2lsGAR5GX554sumj9SUqCykqwFT/DhVQ/hw975ox74GvgS0+pqu41jEUIIIXqF7lIEO4Bbgd9gdktdAPwas2unF/i9fUOzlb54IrcvXsXzMbEQFRXcE1mtzcnqrTNh3ptmCfTA/pCeBhuWwpsfwM0Pww1XwAWTYegAs6wxKR4O1EH+OEJyHV8paGiA/eVw4/e5A1M8dtciGCAKUzCdh9kN9WPgT8AeG8ckTs8w4N+BXOBZ4CfAVqCZ8J2f9IxJXPXhKt6KjYXo6ODPH04n3HsTzH3DbJw3eABUVMOcN6CwFG6/Fr58G9xuWPYl1B2Efn2h9hCMzzDb4webUtDYCOXlcOVUHsbsPmzn/BGJ2eNgKvASphj+A7DDxjGFC7kTLIQQIiS6w3JoF/AYUADkAI9iTlr2YgpgML8oe+MHKpM5F+dzz759HG5sDP7dE6cDRgyBf8yDqy/1L3f2QXws3DMLnviNeVxDA8y8zOT8lnxmlj5OyjV3h4NJKTh8GCrLqZo+gRmYAhjs/1l05qMRWINpCZKP6Uf6FKYwFuFvPObntRmYBPwDWI8pgMH+99eJ549sFlw6gZvK91PX0BD8+cOyYMRgeO41s9uzUrCvAnLGwrP/F2ZcYGIXERFmVcmv/gKfrICly6Eg7+gGfMGiFNTXQ/l+DkybxPVq3JH2O3b+HJqAdcCTmBUEOzDvp6zgfvfdTne+sCmEECLMdYc7wZcAZwDfwSwbE8dRWczWa3F8XMzfhg4jwuUiaHd0NBAbDdPPh7Oyjz6v1maDrIQ4uPYyU+ymppi7wG6PyfwlxgdvHHD0BLamisrJWTygsngveM8eVn4J/BT4NvBdm8ciTs6FWe78GvB3m8fSIWocL+m1uD5dzd8HDiIuqCtKtFmhcu1lZsmzZcG4MUd7Abs95mFeL0ydaOaMxkZ48HbokxLcPQ4Cd4Aryqk7ZxwPqUxeC96zB9UfgBbgIeBh/BcshBBCCBE83aEIvgmYixTAJ6NVFk/rUhqWljB3+HCzG2swTmQdFlQdMJvZJLSx87TW4PHfj3c5oSD/6OeDfQLb0gxbt+KbPom7VBYLg/fsYem3wKeYZbbbbR6LOLE8TJ/DblkAB6gsXtCraVpUxCsjR5o7s0GZPxymP2//vpDs37egrefV2swfE3KO/j3o80cLbN0K087ibpXFG8F79pD4X+BdIBtYbfNY7CJ3goUQQoRMd1gOfTaw2O5BdAcqm3kXjuf2sjJoaur80kanw+R+n3gerp9ulkCf7MRYa3NHx+sN/glsQwNs2Agz7meSGtfjC+CAF4Db7R6EOKnrgVftHkQwqBxevSSbKzdvMXdMOzt/OBzwwafw+yfhuummB7Bd80djI2zaDEluLlU5YV8AB7yE2WRNCCGEEEHWHa60ViBtcE6LXsvdy9fyl/79ievsZjdOh1nC6AnyiempCmSAqyupmpzBHSq7xy6Bbssw4J+YSIAIT58At9CDNjHTa7jps3U8mdaPxJiYzs0fDodZTeL1mpZJXU0paKiHigoOTMngfpUdtkug2zIYmA1caPM47PIkZiPMJXYPRAgREpWYlVRC2KI73AnuDoV6WFFZzD4ni0d376LF7e7cHR2P12R/7SqAj2SAs7m/lxXAYJZBSx/T8HYGPagABlDjmD8li0f27eVwZ1eUeP3zh10FsH8X6LopWTzUzQpggJ3AELsHYSP53S+EECJkukMRLE6fVlk8fX4Od2/bZtqPhLLnZii0zgAXjOZulcGbdo/JJvF2D0CcVJzdAwgFlcUL544z80dLSzedP/wZ4HMyuFtlMd/uMXWQHP9CCCFECEgR3IOpbOZdmBe8jHBXOS4DXKDG867dY7JRN/mp9Vo99uejsnn1kjyu2hKkjHBXaZ0B7md1qwxwW7rJ/+shIztjCyGECAkpgns4lcULF5/Fvfv3Ut8dCuHWfYBnTGIG8KXdYxKit1I5vH3pBG4OVR/hYAtcQCvfT+1lE7g+924W2T0mIYQQQoSf7lAEe+0eQHensnh2yji+t2tn5zPCoXRcH+DemAEWIuwcyQjv63xGOJSOZID3Uzcli3/rhhlgcSyF3AkWQggRIk4yG9+g6nB/wvGXjRXvYd+1fUh//VN8h8Kvp7H2OBnYfyXF6jt2D6Udpo/wGho/KuaFYUHsIxwsx/QBnsjdKqtXL4EWIqyoLF7QpTQtKgxuH+FgOZIB3tZt+gALIYQQwkZOfIUzmTwOdDjecG0E5gKNU8Fh92C+SUXAF2vSgHAvggFQ45irS7EWF/H8sGEQFRUeJ7KBJYxbtsDlD1CALIEWIuyobF7VxVz1YTELhg+HzrZfC9q4/HeAt26FQZFMU9l8aPeYhBBCCBHezHJopTArj8LtozW7x9LGh1KgHeF49eCEVDZzwikjLBlgIboPlcvbl07k5oowyQi3zgBPm8D1WbdJAdyDyHJoIYQQIdMdMsFhTnW7X9Iqi2en5PCo3RlhyQCfkm51kaUX6nU/H5XF/Mn+jHCzjRfSlIKmoxng7tgHWAghhBA2Cb+cregKWmXwlF5Nw0elvDBsWNdnhAMZvm1b8V1WYGMGOPPQAqqa+oLy2fL6J2PFe9h3TSrpb3wSnpl4r5OBaaUUq/tD9hrjml6j4tAA+fl0hM9B/74bWK3uDvYz+zPCzYsKedmOjHBg/igzGeB7VBavd92riy4SpluwCSGE6AnC8MRNdBWVw1y9BmtxYddmhI9kgMvg8vuZDHwR+lc9AXfxlUzOAV843tCrBzUXdP25Yblow3JB0VcjgNAVwU1fXMvk8fLz6QjLBcUrM4CgF8EAKptXdDFXf1jMW12ZEW6dAR6RIBngHq7brbQSQgjRPUgR3MupcczRa3F9toa/9B9AbKgL4UAGuKqS6hkTuAM7C+DWg7I73Hgy4To2pUA7PSF9DY38fDpKKVCh3bNA5bJAr+Xmz9bwj7T+JMTEhH7+aGiAynJqp03gfimAhRBCCNERYXj7QnS1rsoIt84AT8nifjWehaF5JSGEEfo9C1QW86eMC31GuHUGeHI2D6lsXg3NK4kwEaZXl4QQQvQE7RfBPsDj/wik8nSr/w7wcuzCJR/f3DLG0+rj+Md7AXcbrxWg/Z8/fmzHv4a31WPdx33oVq8T+PDwzQVXgce1NY6eSasMnjp/PPdu3w6hKIRbZ4ALxnCP9PEUoudQWcw5dxz3bN1mjvNQzR9bt8E5mdyjMngxuK8ghBBCiN7k5MuhmyC3v+LMFIXHByvLNXvrNBlJ4HQqSg/6q0cfXJSuKKvV7GgGNOQkKvrFw4c7tXkVL8wYrEiMVmjg/7N33/FtVvcexz/n0faMHTt7Q1hZ7BU2LWW2rBYKFFrgMnpvS0s3tKV0QFvgdlPKbUvZXZTVQhlt2asECKTsLGI73o4t2drPuX88UuwEZ0AiS46+b14isRRLv8dHlp6fzvmdX0/c8kCz9ZJMBw6baBhX7Z05uRbe6ra82G29NN16GzcdO8Nw59Lc/bmwT4PBZ+CptsHrjppqeKHTsnCSQ9gPqbQl4Df4ffDwcped6w0Tq83avDfjwr+aXToSDDZkMHDIJMP4KsPiNsvra2xZLBw387jFvoLz8AvcOGsmhEJbZ2ljfgnj22/D0cWuARaRgjDz+JN9iY88+AJ3b7fd1ttjYGgN8I5jOdLM54Etv1cZBdQiSURECmbDqV0Czl3o48NHhdmuzpDIwPJOyxf/b4ALPxCgZryfs66PQ9JCEq69pJKb/hznew9nIQsXXxhi712D7HxmH/iAVZY//6GW5nYX11pW9VpOb81y5k8SMMbwv1+qpKHaEI9bUllo7rP88s8J7lychaTl22eF+egHw/z72zGa3snCGst3vlnJ+HqHBRdFvZnbGNx8ZTVnfSfGJWdHqK80TJ/mZ2VTlqAf4lf1842LqqgPWTIp69Wnxi2xG5Pc91IGAoCFzx4e4MRDgjRUGP7T6nLJbxIs7XS949jGmXncZJfg31o1wkNrgI8qlRpgESkIs+vWrREepgZYCbCIiIhsseGXQ7tAteHisyp49KkUc86JscdnYqzpzLLXLgHSaUs6Y9f5jDadhkwWyMJ+Ozo09cH9z6Y577ggJLx/Y4HZJ0TZ8ZQoH/hxnCnjfVx5RggS0N5n+eI1/cw+Nsqck6Ksbs2y755BL8muNkwZ73D1H+P86JQQ9HoPnMlaVrVnuf7sEMS8B0hn4G/3ZNnz3BizpvextCXLrHNjTDm6jz8/kqWrz2XqtwaYeUyUGSdGmXtWbJ0E2B82VFU5/P5vSeYeEiWWgFMP8EOqgKNQYsxcblg4b8trhPM1wD2qARYpG2Yuv184f8trhI2BRCJXAzy3bGuAS3Fb9JGkmWARESmI4WeC03D2QX5WdlquuTEFUwxYOPc3CQga9j9uI2uD45aT9/Thx3LRr5K88NNKrr81OXj7ZOOl3m0uh12boPX7lXztBu921+IlzCEYV+fQtMKFFJy9h5+3Oy3X3Z/i1EODMNaBdhe/z/Crh1KctH+Aw3d1+MezuQLeSmCcgT3A5xhoMBAy0Dm4fJv88mcz5KdgwE1brngwBXELY6EiBE1dtty2ELNmLv9nlxD/14vc/H76CK/TB3gfzjZz+Wvhwi0gl8G6cIe1y/OxrPucyOa+NkO+z7Lu6oGhdfBmvX+/fo18/rHy8nX4Q+9vQ4/hDHN/sLZkYJ06d5P7/qGJSv6x8sdYys/9zR0fl8Hf9/zXo3V8NvaYJcLM4Wa7mORDL/CH2dtD4D32EV5bA7wUjtiLc8xc7ihIoPPtrbR1zSzdPtQfGcvEux8pzT7U1mHC2OUsNqcXOxIREZH3avg31ixMrTe82epCDYMnjxbodN/9yb4d8meDIVPlJxPLcthEWNphOeAgP0/cs96uVkFgSZbaCq/9SWOV4ZffrOKnl0AwYHjg+RSX3Z2EkGHfnX3UhC2HTzY89XqGyz8S4LKrkxgDd6xw+cCsDJ86IsQ/FsU3frQpGFttiP6oikzWO9Hq6XWZeUF07Ymma4GYl/RecnGYoIUb70vBmPLbqNLM5Ra7BN/Di/jde6kRXq8GeCHwTMGDLYQkzG007DTW4LqWf7fDql7LDrVQETS81Dv4ocrB4w3NUcvbCcDC3BqYWG14qMl6z60sfGiyYUyFV4/em7A80GLXJmcHjzdMqBmsiV+2xrIo/+GLBZ8fjplkuGdl7joX9qw3BH3r1sQfOcXwXIfloBkOET8k05ag3+DzwZPvuEytMUypMfnSd7IWHml2aR+mJr6xwrCk0/JaT4nWxCdhlwbDLg3e+CzqgJW9lu2roTpkeHHI+Bw0ztAas7wZByzsUg2TawwPNdu1SekRkwx1ld7Ppi9h+ftq622O58CB4wyTagfHZ/kay/NDxsfxwzETDfeust7P0YU96g1hPzy52norTXLj83SH5ZAZDhXrjc+zq1zGVxmm1Q6Oj2vhkRZLW9yumwi7QBCOaDA82GxLMxFewB/tCyQffIm73kuN8NAa4PmTONLMK+AS6NjjH2P/+X7c0suBIZbrQx07uCQ3SnZ8sPjxvQElwSIiMuoMf2rrgzdbLRfs48AaoDp3vQsHzfORTEMEBk+agxBPQyINR89wOHJ3P/6swzELAzgGzj8swBO/SK/7GEmYtpeP1d0uWEtHzHLF5TH+dE+Wn14ZIehYMt2WBVMNEyf7mT3O8JMd/AT8hhVtLoS82eMpfvife9L84UI/xx7kw27sXCYIXVHLgiti8K+MdxBhYKJZZ4ZoWrXhwuNDTG80nPTVAWgswROQEWLmcmOuRvgnm1MjvE4N8D6cyWhNgBPwqX19HHdUmB0bDKksLOuwfO/mOKfu5WPqrAAfvy7urRhIws++XMl9/0g/W5soAAAgAElEQVTw1bsyYOFz54bZf68gu3wmCikLzZY/3FJDd58lk7E09cHpqzOc+askBOCqiyuZ0uDQP+CSzkJzr+U3dyf4/SKvJv6y00J8/MgwXf/bz5OvZqHPcvklFcyY5GPOfw/WxN/y/WpO+UaMS86L0FhtmDbVz8rmLEEfXPaLAS78VAUTqgzppPdhViIFX7oxwb2LciUBwGcPC3DyoSHqwvBWl+VL18dZ2lFiNfEJOGsfb8+CHRsNmSws7bRcc1ucY+f52H7nAB/7ZRz6vfH5yRcqeOTJFJ//o/c6dNGnQhy4b4hDvxSlrddCi+W2G6uJDkA6bWnug9NaM5z5myRY+MHnKpg1wUe03yWThaY+y433JrnluQwkLd84JcTpR4dJ/XyAB17KQMxy2VcqmD3dz86f7vPGJwq33FzNCZfEuOS/IoyrWXd8rrh+gLM+XsGUMYZUwhufVAa++LsE9zw/OD4ADMCPzgpz6qEhJh6+BqaX5muU2Z277RJOe/IVrtucGuH8B2jtrfR+aB/ONXMLXANsfBmM4x+BTlLvX2kOLRjH+/kV8BHQcmgRESmQ4Rc6BuD25zKMrTR8//MhiAIJuPW/I+w2P8DTb7lMa3Q4aUcHllo+c1iAjgHLyy0us2f7eWNphjmHxpj70Rhf/Gmc6hoHFjre2c/K3KXR4Q8XRPjxnQmoNTjGm6VlOjz6fJrtZvg5cb7DHjMcwo5lpxOizD0lxs5f7ee1DssRh/qx1hJwINvisnhJmk8dGcK1dtNvm/kl0D68GZWhE8gunH5IgJoQnPaNARiw0L81ftSjl5nLbxfO4+JN1Qi/qwZ4/iitAXaBKsPnzqxg8eI0c86Jsdt/x+hoyzB3Rz+ZYWviLZlc66+9tnNYPQB/fy7Npw8NQK4awFqY9d8xdjg5ymHX9DOhwcc1Hw9CwtIRtXzr2n5mHxVllxOirFyVYe/dg14slYYp43384q4Enzs2BLld2bNZWN6S5YbzQhC1a2vi//FAlr3PizFzWh9Lm7PM+q8YU47q4zd/y9DXb5n6nX5mHh1lxglRdjo9OpgAW6gMQajC4aZ7Esw7MEpPzHL6QYPHUBJy43PRGRFeezXN3HNi7PrpGG0tGXbawZ/bs4B1xieV9vYQIAu7z3RoSxgeeC7NRxcGBuv9Lcz8cowdTopy6NX9jKtz+MkpIYhbOqOW713fz+wjo+x8QpSlyzPstVvAey2p8PYsuP7eJOceGfTGAshmLUubs9x0ftgbs9z4PP6PLPucP2R8zu9nylF9XHtnhv64ZYfvDo7PDqdG350Ax+G/P+hnbI0hlSr9HMHM5fbNqRHO1wC3t9K7cB4XmrllWQMsIiIiI2D4JNgBkpav/2KAnXcOsPTmapZcV0XKb7j9kRR3LcnyyKI0n/t4hOZ/1XDCB0Lc81iKfy12OfbAELc/lYb5BqYZXuyytMfgC8f4sRaaH66h6YEanrm0ghffyPDTu71p5UDAWxJI0HDH81naO1w+9IEQO84J8uYqFxqAqQY3ahkXsJx+gB/HZ/A7QKXhO39KEwwYgoF1z7CCgSFHmYLxdQ5dP6ik9bEa2h6q4Z17a/juaUEYAFyYP85w/KEhzjg8RNMdNay8v4Zrz89tvFW+rJnL9Ycs4NwN9REeWgO875xR3gc4DWfu6aOpx3L5H1NeSUAELvhdkpueSuP4NnQWDyQsx+/qozEEF1+X4NwjgtAzmKiMrTcwyUCH5YhfJjjj8MHnlpv/QCYNjWMcbNpC0nLGAh+r+iw/vj9FY70DDQ644PfBTY+kiYzx8aG9/Gs3oKMCb/XCHgbHwauJn2ZyyzfwVksk8ZK/DOvUxA+k4ZqHUvz6nxmYYJg61vB6c7a0lkNn4IzdfbT0wtfvyI1PBXz6piS/fTyNs7EZ66Tlw/MdJlXC569LcPYH1h2fPWpz49NpOfK6hLcHQX58LOuMDxlvlvnUeT5aB+Dq+1M01uXGJwt+n+HmR1KEax2O3mfI+ERYd3zGAlMNVHh5e39+z4IU3gzy0J+9C6beMHunAHc8kSabazFX6swcbj5oHucsXQbpYfoID60BXrgL55i56gMsgGaCRUSkQDZ8ahuCu/6T5e4r+pkT8WoHX+tn7UYvP7gnxe3/SFEXgNYktCWABsO5342yMoFX8wusjlku/tUAaQs3Pd7HhLB3/UAWlvbhnbBHLSd9K0ZXNvd9ATj92jh1AUhbiGWAqtyS5QB89voE1kCWJGvyJ4mVcNyV/Uzy453wA0w27Hthn3cy6QCTDId/ro9xoXXfWVuSeCemBl7utpx4aZQaP/gc7yE7Ut79lzszn5vtEpx/LOJ3M4fUCG8zNcB5Lkytd1ja7nrPx/Vq4t9laE18rcHW+ujvdzl4gmVpu+Xgw/w8evcwNfH/yVJT4T2vx1bCVV+q4rsXWYJBw79eTHPlXQlwDHvv6GNKPRzSYHhsSYbvnRjk0h8kMAZeaXPZb3mGcz4U5IHnNlETn4HqiCF61WBNfGzAMuWcvrU18daC7XD58X+FOfvDYW55JMUfn8qUVhKchSn1DsvzS7SHjk+Xi8mv2x4yLmtzriqDU+cnGrMcPN6ytM1y6OF+/jXc+LzqUhPxNvIbW2n47kVVfONCb3weXZzmyjsTYGGvHXxs3wCH1MOjr6S58qNBvnaFNz4ruiwr3kxz7lEh7nt2YJPHVRmC6A+qyFyRq41NWCZ+Kgq+3EFk4PLD/YQzLnffkebH5+Ot1BkFzDz+aF/M1QjPGqwRHloDvPtkjjIL+HuxY5WSUKoLwUVEZBuw8TmEoDdrtCSWS4CH7lQagHcSsDgKbWm8k2QHVibXu1cDsSwkXehIwytR77J0gHUSjM7MkMQ099bXk84lwEOuw0BnFroysGboeWtug5qWfMKbu645OeR7HWhNwcvRwTheiUJXmnXebpuT3vEuyd3emkJvxzlmLjcevgfnrm6mP5EAx/FqgNta6T5qH45htCfA4NXEt7nMneJAmsFdeLNw8DwfybT1+pbkNqgiAIkMJNOw7yTDcXsHOHKfANdeWsWc8XDhB4LQtN6ERhIm7OljdY8LLnT1w5euijFht15+/dcEfb0unR2WWeMM02YE2GW2n59fUsHH9vGz/y4+yH0AUes3fP6+NNmA4dQP+L1Z3g3NnfghGrdUfylG3R5rGLNwDVOO6V1n92G/A2MnO3zuN0lq9l6DtXDdeWGvtrZU+ODtNpddJjuDY5Mfn7k+khnvQ7uh4xPPeHsWzB1v+Mi+AY7Yy8+1X69izgT49AeHGZ8UNOzuo3WNzY2P5es/jjFhXi/X3ZUg2ufS2m6ZUA8ztwuw0yxvfE7ZJ8DCnf3eXgNApR++/PcMcSxnHemthtng+PigPwnVX4lRt7s3PhOP6h1MgLOwcJLhgH1CpFJw5UVBqioMF33S783ojwJmN+4+Yi9Oa22hb2DAe/0YGIC21fR+aB8+Ou5IJcAiIiJSeJteSJdvFTK0XcjQ717/+uGSxfxMjbPeZf1/M9z3mE3cNlys68c4XMxDLxs6rg3dXubyNcJNq0j19kJ3J50HzOPcUVsDvL4A/On5LHUR+Mm5ueXKcfjdBWH23j3AM0tdGsc4nDnHB8ss5x3kpzcNL61ymbuTn+WrMsw5KMacj0b51JUDVFfnauKBri4Lyy3UG/54Xpjr/5aEWm82rLYS2AGeWJRm4kQfZ+3tY9cpDnUR2OmEGHNPibHT52MsbrEc90EvoXIcoNXl5VfSnHxI0Ftmujk18T4GN7rKTyBbmBIxfP7YEGcc4IcuS3fU0lBjSqtbaQD+/EKW2hD84qyQV7M/AL89L8z+ewV4dqlLXbXhnPk+WG45e6GffhdeWumy+y5+VrVkmXNgjDkfi3LStwaoqnbgAAcLLFqTG58xhj+fF+a39yegxhufmkoDO8MTL6ZpbPTxX/v5WDDJYVw17Jgfn8/EeKHZ5fgPeRsOGwO0uyx+Jc1xBwS98drI5n1rX2ryexZY79jyN/YnIdaWYVKdYdYUHwE/TJ3gbPQ+S02uRvgzra3EenuhrZW+hfP4tGqAZT165xURkYIppUWOMnpYM5fr7RJS9z3Fj47ej3PMXO4pdlBbjQFSlsuuG+CskyO8dVOQVNry/DKXex+L83qbZc6/U5xzQpgrz4vwVrvljn8lufffWR48q4L/+1sSdjUQhNdisLLL5dIPB7AWWn5bjZu1NPdaXnw9w/fvTkG1IeD3akgJGO5Z7HLCIVkOOjBIWy+8sSoL9RZqDKSgxnU542A/js9bsk+l4cq70vxltwCh0Po18Wbwg6AM1FUbuq6oJJ20GAPpLNz6UIqv3JyECKzot6zpdvmfUyN865wILze7/O9tca8coVTkxufy6wf4xEmD47Nomct998ZZ3GKZ81yKTxwb5ttnR3i73fKXR5Pc8UyWB35awW/vT8Ju3vi8lbS83eZy2fHe+Kz+WTXZjKWlF158I8137klBhSEQMPh9QMBw3ysuJx6cZf+FQWZ0w+vvZKHOQq2BJERSLmceHMDx4+1zUGH44T0Z/rRrkPDGxicLNVWGru9Vkv6mNz4ZF257OMWXfpeESnip1/Lh7+Y+tYhB099DfPHylHc8o4iZw032FdJ/fZprj92f881c/ljsmIb1fvtQD9fDeWN9qNfvD72hPtSb04vcGXLbUL6NXL/+02e4+IujhJagiIjItsSw8xOWneeDW0pTPaOE44Onm5ayepftix1KEW1ibqvE7fCYZe6uwz//00AQ5ld4B7gkxuCJaBamVcDYkKEjaWka8K6fFYFlcQZPYC1U+bxzzEoHxofBYIhnLW/0sfYEtDEAPVlvr6X8ad/YgPd179CSAAtjfRBwvM5L3fmwc3FNC3plCvlRmRaGd/IlAS5MDMGEENjcWa8x0JywtKcG7x8XZlZATcDwTtzSk2T4j8scHzz/dhvv7D7h/f3wN8P2j1rm77bh8QnA/Mrhx2dqBTSEDJ1Jy6qNjE+Fz9t8OezAhKHjE2Vt0tEYgN4spIY80+sD3sOtyXd/y/386n3efcWtN6bAZo/P+CBMCq87Pi0JS9twJRkWpofw9mAYbk2P44MX3+hh+V71m/nTLobivn5s92ScBfPCwz6/UrB9nWFeg1d68FInrOi1zKiCMeF1+4TvN9bQk7C8PgBY2LHS60P9z9bBpeyHTjCMrfQGsS9pebB1sA/1fvWGybk+1Bav3/XzXUOK2X1w1ATD31vs2iX1C8YYKgPwVOtgH+oPTjI80W45fLKhwm9IZixBH/h8hhdaXMaEDTPHmLU5uwUebbG0J4Y8VhYmRWDHMYZH2+2GB8fxweJXkixdGN7CUdiQG4FfAU8V6P5FpLg6gMZiByHlSzPBsqVGbwK8KbkTy5fzGw/llxED+L1k5p2EXfs1wLL1E5JcTTxANJOrL2fI9+ROPDuG1qXnzk670uveT/7PriyDy5OH1LtjhyRYuevW/3p10rusM8EydAYrd4zL43hZnKF0XyVybZ02ND6rErBqM8ZnIPez7M3gJZv5n82QGbKOoYlu7p90b2B8urdgfNpS68WQv48NlJlsMAEePUrz9SMJZ+zp47gjw8ydmOtD3WH5+Z/iHDDTYdc9Qpx47YDXDisJP/58BS++nOKCG9Ng4DOfCHHYASFO/2aMF1tdaLXc9utq0i4kk5aWPjh9dZYv3JSgMwHf/2wFO0/z0Rd1yVhoWgO33p/ghqcykIJLTgxw5ocjVP7fAH9+NgP9lsu+EGHu7AA7XDDYh/r2W2o46ot9fP28CiaMMUyd4uedliwBB3584wDHfzjCrEZnbR/qjOv1ob7z2cza17vDphhOPy7M/rsFOPfSKE922GLNCG9OcYeIiMj7MrpPn0QKbXNq4tdLqoa9j+Fq4jdWS1/Mmng2cVspGcnxGe7rYo3Phr5ftpwLVBg+e3qEVSsyzPlUjAUXxGhuyrDD7ADpDGQydp30fbBPuGX+dIeutNeH+qA9/ev02P7w5f3M/kiUg3/YT0Ot4fKP5fpQxyxX3zDA9h+MstNHorz+dpo9FwRySxRg6gQfN92f5JRDh/ShduGtVVlu/fSQPtRpy78fd9n3ghgzpvbxdlOWmRd4faivvj1DMmWZ/71+ZhwZZfrxUbY7OTqYAANYmNjg0Nrj0tntlsLvf/EjEBGRbZJOoURERPIy8PFdfbRG4aq7kl4f6kr4zC1Jrnsk5dV5b0gKjtnFYcYYrw/1WYcFYY1dO585pdrAFAPdlmN+leDkAwf7UFvL2v7QY2scTK5f9Ek7++hOwRX3p7z+1I1Org813PJoilCNw7H7+wc3uAvh9aHe03h7BuT7UFd5N3dvqE84gA9ufTnLpfemcLMWp/gpqGaCRUSkIJQEi4iI5Lkwpd7wTpdLPL8BVn5GvstbRrxBYYO/wU9v1LJ/o+XtVpfDPhgYTFDzAgz2ofZBfQVcemElq1+qpfvftVTVGK66MwEZ2H22w67jDQurLP9YnOaHHwtCr1cv3hW1vPpymvOODkHFJo4rC0G/oe/7VfS8MIY1T4yh4+FayJp1U821m20VPQMuegAiIrLtKtVqPxERkZHng7fbLR9c6FDlg74hG5kdPMdHMu1tWBf05TZK80Ei6/WhDo2BkxYGCLouh+8ZwMHymQ8F+ecv0us+Rgoqd8v1oc5A9wB875f9XHVlmsuuCbPTZMPyFgvVsMOOQWZPNVz/9Sp8BnoGrNeH2kLYB998OMON2/s5/9hcH+qNHFcqY6n5agz3voyXNPvxZolLN93UTLCIiBREGc0EG++j8/xFRERkfX6486UsNUG4/LSQ16e5H351dpiD9w3y3HKXyrDh3AVeH+rT9/GTcgwvrnA5Zr6f1vYsu+zr9aHe+Yv9VFUZONABCyv7LCzz2p3dfW6YW//h9Ql3DFRFgN3g6RfT1Izx8T8H+9ijwWHqWMMOx8eYc0qUnf4rxrMrXU4+yo9rwThAp9cn/AN7B/H72WRP78r8Znf5jfkG1vsH/RY6IJ21PNVtvXrj4tAbtYiIFMy2NxNscjvSGFi7uWQ6A9ksuLneEvlE2O/3LuBdb/N/6sNnEZGylOtD/d1fD3D6CRHevDFIJmN5YYXLg39K8MwKlwXPpTj5iDCXfCLCsk7L3Y+nuPXxDPf/qJqbHk7CXl4faoD/NLl878QArrU89L0q0mlLa9Ty0psZvnl3rg+13+D3G/AbHnzd5YRVGfbeJ8S4me67+lA7sSyfPCxAxmfwOQYihmvuy/D7XQOEw8P0oc5/6JuFiohhxbcrSV1q8125+P0/U1z8G68PNVm46uwwn/hQiLpah1W/rOGfi1KccXXc61M+svRGLCIiBTPK+wTnkl1rwXUBC7EYDMQzDKQGSKbSpDA4ThzjRIF+LHEMFWCrsLYaNxsm5HMJB4JEApVUVzuEw4DjfTxvzIaTYvUJHv021idYNq7YfYJl40ZHn+Di2lif4Fyf8D2qDdbCC1HrzbLm+lDPqIRxYUNX0rK03/uWHargzX7e1Sc8Yrze0eMjBgMkspZX+li7i/iEoNdKLTaktda4gJcFdqS9+xnaJ7zaD/0udGZzb0+5ZdmzQ/BWric2LmxfAW/HWduHenIIJkcM1gxuYN4UtzQnB+9/UgimRgzxjCXoM/SkLEvz9zFU4fsE3wL8DHi2QPcvIsWlPsFSVKNzJjifmKZSkBqA/j7LQOVyusatwD92BZ3NzxGbsghYBnRvxj2OB7ajumMv6hv2w1kzgdr2WVSmp1JVA/4IBAKDCbeIiGzbcn1zF63Jveav14d6RRxWxIf0lGa9BDj3PbFsbgNoO6Rvdb5dVi6x9PqHD36NhfbUuveT/7Mrm+sVPvT6XNK7NgHOXff2el83J6E5sd572NA2XAZaktCSPy7s6GiVJiIi8h6NriTY5Hax7OuF/h5I+JbRNvdOwrxJihdpNi/iNX14r9qANqKNTxHlJ0AF4+yehJhLmD2pXvIhwnYSlfVQXe0lwkqGZVRZb/MbPX9LjManJA3X7zlvuB01hrvOrPfnhh5nY19vzm3DxbqpvtQbup+NtYEaOUq9RUSkYEZHEmwcsC6s6YXOJnDHPUzTgmuJ8h9cs5RNbgXyng3Qbh4DHgMq8dvp1LA7Exd9kVDbAurHQ1WVNtiS0jNcTXwmA5ns4Ic3qokvHo2PyHuhJ7uIiBSEv3Q/bM2dKGYz0NcFLV0J0v5/sXzhuUDLCAbST8a8Sjev0s0tYPdlxuKriLTsw9RJAXzZwAjGIjLE0Jr4XGFgfz/0D2SJpwZIplIkrYPji2OIgYlhieNQgbVVWKpws2GCjiUSCBIJVlBV5RCJsFk18bIJw4zPQD/EhhsfEwNig3sWUIl1q3Hd3PgEA4QDlVRXOkQq0PiIiIiIvH9+sv52omvGEakAX8CbcS2q3IldOuUS73dY1fsm3fMfp3P77wNvFzk4wDzDCg4E9qYnfgm1k3uKHZGUmXzik05BKg6xXhiIrKB73Ap801bS3fosfRMXAUuBrs24x3HAdlS270lD436wZhJ17TOpSE+jqgYCqol/T/JlG/nx6e+D/vBKesYtx5m2iu6OZ+gblx+fzs24x0by49PYuC92zRTqO2YQSU6nqlbjI9uq3FIJERGRrc9P196fxPIJal86jsqqEGMaAzimOMmw44NU0tLbbuhPrqZ1t/voafo1cfPcyAezSc/RGjme1mKHIWUjn1xF8zXx/hV0zLmHAK+R4iWazSK8PW3fq3agnf5xT9PPz4AI/XYPIswnxK5ULzmaiJ1MZR1U1aAluRuwdnz6cuPjrKRz7r34eZU0L9FkFgGpTd3NMDqADvrHPUM/PwfCDNg9CDOfAAuofeUYIkyhog6qNT4iIiIim+Kny9xPF4/js3sy7tWP0bDkQsY0pKgbF8Tv95LhQp5QGePV/KZS0NWUZE2nj959rqIjcjdp8yLv76RRZNuRT656+6CrGTK1j9K84OfEeIWMWcb7S3w3Jk6neQJ4Aojg2B8xht2YuPhigq17UD/B2yBONfGedcanBTLVj9M8/+fEeDk3Plv7NSxBh3kSeBII49ifMIZdmfjK5+hcvTdjJ2p8ZFugJ7CIiBRMfteVGFnzCKt5hNX2W8xo/jLNb55EdWgM4xvHEA57iapxhrRweB+Jcf6kzNpccg309UBXXzcD6U4G6m9g9aE/xOt6KDICSvU8K18Tn/Vmfls6kqQDj7FsvwvwWn+NlDiueY1uXqOb28DuzsyX/pfw6v2ZMjGAKXBNfMkmcsOOz+Ms++un4btvjWAgiSHjczvY+cx86SeEWhYyZVIAmwmOYCwiW5uWNIiISEEMszu0aWcFXwS+AnyQyYkzcZrGMyE9k0pnJsEQ+IK5i+MtYd4oC1nXO1nMJiGbhkTcErOvsrqyBXe712g3f8Sb1RAZWa7tIbqmjnAF+EuhJh7vw6Z02iURc2juXUbX/Mdpn/UD4LVihwbmBZZzCLA7a1KXUD1la+/Mvi7X30Z0zfjSHJ9+h9U9K2hb8Dids34ILCl2aGBeZjmHArvSm76E6imjowOAiIiIyAja3GmWiWDn08jOBJjFuNYdCXTviElMxB8O4rhgHDc3O+JgcbGuAWtwgUw6jlvRTKL2VdonvEqWd+jiNTAvA90FPD6RjWuwR1HL6dQtPo7KigrGNPpxnCLVxDuQzljWtEN/oo32Xe+jlxuImidGPpgS0WCPoJZPULf4WCoi1Yxp9OHzFXF80rCm06V/oJP23f5GHzfRZx4Z+WBkq9juyTgL5oVxC/tZTkkYuqpia5Q4OT5Y/EqSpQvDW35nw7oduAZ4vkD3LyLF1YG38aNIUWzuLMFqMKvp4AEgTAv1YMcQoBoflUA9IaoJU0GIAElSDNBPkj4cukgTJ0sfmDV4T/r3cgZ7PHDXezwukc3Tae6nk8fw2f9j/NsnU//K/zBmXJL6caGRrYlPQ3dzkjUdQXrmX01n/Z2kzQtAsnAPPgp0mgfp5Al8dk/GrzyJ+iWfZUxjkrrxIQIjOD7pNLQ3p7zxmfMjOne8k7RZBCQK9+Ai79G7+lCT60OdGY19qEu1FkJERLYBo+FNpg0YX+wgpFzYsUxv+jK+lo9SHaxjXMMYIhWDydBWqYkHbG7mKdoLHWt6GEh3kZxwE03Tf0i5J74bZeuY1vIl/KtOpSo3PhWVBRgf1/tLtA86e3qIpbtJT7iFVdN/AMS3zrFI0Y32meB8u7T8Jd4PsX6XeGqAeCpNOuvgBOJgYxgTwzUDONbrE46tws1GCPhcrw91sIKqSmfw92kTfagLPxP8e+BqNBMssq3STLAU1WioF3OKHYCUE9PFSr4CfA04nCnJM6F5EhOSM6h0ZhEaUhPvOOB7LzXxKXDTkBiAGK/REmnGznyLNvN74LHCH9u2wPTwDpcAlwKHMyVzBrwzlQnJ6VSa7QiFvX7nvlBufBw2/llfbnzcLGTy4xOHfvs6qyNNZGcspW3m74FHRuLoRDZpbR/qNKRzfcL7Q+/QM24FZmoTPW3P0Dfh33h9qDs24x4bgO2JNO/J+En74vZMpa5zOpXJ6V6f8Ipi9aFWn2ARESmY0ZAEixSDCzxEU+ghYAJNQ2riG1fvSKB9R5z4pMGaeGPBsWtr4nEN1hpcA+lUAiqaSdS+Rsf010ixku61NfGdRT7O0coCD9PkfxgYT5OdTwO7EGAG41bvRLB9R0xiEv5gCMdufHwyqQQ20rJ2fDKspJPXwCxG4yOlIr/UeW2fcGcV3XPvwzf1FTK8xDvmed7fKpJOoJP45GdYwc+BEP12DyrYFT9zqV1yDBV2GhVjcn2oGalkWAmwiIgUjJJgkU1rBdNKBw8CoVxNfN16NfE1w9TER/HTRZKB9Wri38vaS9XEb1obmIfo5CEgyGrG5vYsqCFAJe46exYESZIiwQBx+oaMTxRMD15CkHkPj63xkcLKz/z2RaFrNaTDT7N6/s+IsZiUWRON0ioAABPaSURBVMbWr0tP0mWeooungBDYn1HHAia9+lk6V+/H2Ekj1YdaM8EiIlIwo6EmWDUDUs5UE1/aND6j2awnk+w6L1h6NcG5za1cN9eHui1NMvgky3f7DJgituKyuzDzxZ8TSh/AlIkBli13WXbwpmpC3q8/AD8AXijQ/YtIcen8XopKM8EipU018aVN4zOqhVqIrplBOAL+YOn0oc6kXeL9Dm1rVrF6zhN0zvwh8FKxQwPzKss5DJjHmvSl1EytKeSDFfC+RUSkzCkJFhGR8tS/xzm8xScZ+/IxVEZqGTPWh89fvD7UmQysac/S399D+2730TftVnrNgyMfzCa9QmvgVFoL/jhaDi0iIgWhJFhERMpTm/kn8DSr7J6MbzmJuiUXUTc+QV1jmEBgZPtQd6xOsaY9SM/sn9G1w19ImkXAQOEeXEREpHwpCRYRkXIWJ2sep4XHabGXMX3Vl2h56zSqQ3U01o+hsgqvRrcAfahjMWjvWkN/qofMpNtYufMPwfRtncMa9bQxloiIFIySYBEREQBMLyv5OvB14DCmZs7ArpjB+PRUqsz2778PtQvZJGTTkExALPsmLaFVmBkraZl+K/DPkTg6ERER8SgJFhERebd/ssr/T2AcTXYBDeyCP9eHOtSxIyae60MNGCzGsd50sXWxrsFicIFMKomNtJCsfZ3O6a+TYsWQPtTtxT1EERGR8qQkWEREZMPa1+lD3crYXJ/wjfehThLFoZs0/aTpG9KHOv0eHvsjwN0FOarSp+XQIiJS1jqKHYBIEen5X9o0PlJIhd9/uXT9GVhQ7CBEpGD0/ilFpR6XIiIipclX7ACKSH2CRUSkYJQEi4iIiIiISNlQEiwiIiKlSDXBIiJSEEqCRUREpNRoObSIiBSMkmAREREREREpG6MhCQ4UOwCRItLzv7RpfKSQyv35peXQIiJSEKMhCb6h2AGIFNHvih2AbJRen6SQ9PwSEREpU0uLHYBIEb1d7ABkozQ+Ukjl/Py6E5hb7CBEpGDUJ1iKajTMBPcBVcUOQqQIxgJdxQ5CNmoNUFvsIGSbVAd0FzsIERGRbdFoSIJfA+YXOwiRItgPeL7YQchGvQLsUewgZJu0F7C42EGIiIhsi0ZDEvw4cFSxgxApgjOAu4sdhGzUw8AJxQ5CtkkfBf5e7CCKyKCNsUREpEBGQxL8V2AHYE6xAxEZQQfhlQE8WOxAZKP+BkxCs8Gyde0DNAL3FzsQERERKZ5z8GbEtCxaysFBwCPAB4och2yej+ElK3sWOxDZJuyL9+HX8cUOpMjuQh9+i2zLtDGWFJW/2AFsppuACPBV4GngSeBNIFbMoES2olpgJ+CDwC7AdXhLbaX03QFUAxcDi4BHgTeAaDGDklGlBtgROAxYANwK3FPUiIpPy6FFRKRgTLEDeI92wvt0fHtgIt7uubcDnwRSxQtr1PIBLwG7Atn3cbuD92HEDoBboBi3ZfmTvCTQC7TgbYRzP7C8iHHJ+zMbOA7YGe/1qYHyfn3a0tePTX3/aDf0978P7/f/P3glQGoN6K3++hrwarEDEZGC6MAr+xApitGWBOdFgADeTHYcqECfGL9fGTa+ImBjt0eBVmAC3kyYvHcBvAQpm/szUdxwZCsIA0H0+gRb/vqxqden0U6//xt2D97qLyXBItsmJcFSVKP15CKeuwz9WoojC6RRP0uRvATrJjN6fdowvX6IiIjIiBsNu0NLaRutqwlEpPj0+iEbU64rKEREpMCUBIuIiEip0QckIiJSMEqCRUREREREpGwoCRYREZFSpOXQIiJSEEqCRUREREREpGwoCRYREZFSk++jLCIistUpCRYREREREZGyoSRYRERESo12hxYRkYJREiwiIiKlSMuhRUSkIJQEi4iIiIiISNlQEiwiIiKlSDPBIiJSEEqCRUREpNSoJlhERApGSbCIiIiIiIiUDSXBIiIiUmo0EywiIgWjJFhERERERETKhpJgERERKUXaGEtERApCSbCIiIiUGi2HFhGRglESLCIiIiIiImVDSbCIiIiUIi2HFhGRglASLCIiIiIiImVDSbCIiIiUGoNmgkVEpECUBIuIiIiIiEjZUBIsIiIiIiIiZUNJsIiIiJQaLYcWEZGCURIsIiIiIiIiZUNJsIiIiJQaU+wARERk26UkWEREREqRlkOLiEhBKAkWERERERGRsqEkWEREREqNNsYSEZGCURIsIiIipUh1wSIiUhBKgkVERKTUaCZYREQKRkmwiIiIiIiIlA0lwSIiIlKKNBMsIiIFoSRYRERESo3qgUVEpGCUBIuIiIiIiEjZUBIsIiIiIiIiZUNJsIiIiJQi1QSLiEhBKAkWERERERGRsqEkWEREREqN+gSLiEjBKAkWERERERGRsqEkWEREREqNWiSJiEjBKAkWERGRUqTl0CIiUhBKgkVERERERKRsKAkWERGRUqONsUREpGCUBIuIiEgpUl2wiIgUhJJgERERKUWaCRYRkYJQEiwiIiKlRrPAIiJSMEqCRUREpBRpJlhERApCSbCIiIiUGs0Ei4hIwSgJFhERERERkbKhJFhERERKkZZDi4hIQSgJFhERERERkbKhJFi2VKDYAYiIyDZHNcEi2zadP0pRKQmWLXVbsQMQEZFtkpZDi2y7dP4oRaUkWLbUocUOQERERERGFZ0/SlEpCZYtlQSqih2EiIhsUwyaCRbZVlUBiWIHIeVNSbBsqVeBBcUOQkRERERGhV3xzh9FikZJsGypR4Gjix2EiIhsU7Qxlsi26xi880eRolESLFvqb8COwA7FDkRERERESlr+nPG+Ygci5U1JsGypJuDvwNXAzkWORUREth2qCRbZtuyCd754H975o0jR+IsdgGwTbgSqgW8A/wD+DSwF+osZlIiUvGyxA5CSlUXvISLbgkpgO2Bv4DDgn8BNRY1IBNXcyNY1HzgemAyMBWqBPwOnAekixiUipScFHAXcDwSLHMto5ACvAPMAtwC3F1MaOAJ4Eq8DQaHOVaJ4H+CKSGGkgAGgC2gG7gJeLmpEIjlKgmVrc4AaIIJ3YtsHjEHL2kTk3VIoAd4SCSBcwNuLKY23Wq2QCfByYCZKhEW2Nov32p7E+12O450PltoHbiIiIiIiZaW92AGIiEhxaGMsERERKUdaDSciUqaUBIuIiIiIiEjZUBIsIiIiIiIiZUNJsIiIiIiIiJQNJcEiIiIiIiJSNpQEi4iIiIiISNlQEiwiIiIiIiJlQ0mwiIiIiIiIlA0lwSIiIiIiIlI2lASLiIiIiIhI2VASLCIiIiIiImVDSbCIiIiIiIiUDSXBIiIiIiIiUjaUBIuIiIiIiEjZUBIsIiIiIiIiZUNJsIiIiIiIiJQNJcEiIiIiIiJSNpQEi4iIiIiISNlQEiwiIiIiIiJlQ0mwiIiIiIiIlA0lwSIiIiIiIlI2lASLiIiIiIhI2VASLCIiIiIiImVDSbCIiIiIiIiUDSXBIiIiIiIiUjaUBIuIiIiIiEjZUBIsIiIiIiIiZUNJsIiIiIiIiJQNJcEiIiJSjrLFDkBERIrDX+wARERERLayRmD6BTBrd5gcgQagxoFIBoIRyP4F6k6EG+Lg80EaiFvojUPnEmj+KazAu7QX8ThERKQATLEDEBEREdkCQWCfL8CxEdjfwngDbpBIKECwPkCowofPH8CHH2ftfwawgIuLiyVDNn/JuKQGkqR6kgwkLDgOtCfh2R/C3cCzQLKoRywiIltESbCIiIiMFmEL44EZV2GO7iD0SR++cSGCbh0hp4owIQI4GOyQb7LD/O3dzLv+ZgAXS5I0/STpIeEmSDku2Y46krd9FXsnsNJAGxDfakcpIiIFpSRYRERESt0UCwf8FvZvovo4h9CMCgJuLSEnRACzNum1G01z3y+T+7/JPUKSNFFS2X5SvizJdyYT/euZ8FQQHgfeKUAIIiKyFSkJFhERkVK1861w9krY3dBwQDUVwRA+wvhhbUo68sza/1uSZEiQJUY869Lx6DRYfAbcALxShNBERGQzKAkWERGRUjPm23BNAueIBsZPqCXiz9fzFivx3ZB8QuziksGlj0S2i7bVPrKPXQ7/A/QUN0IREVmfkmAREREpCRZm3AQXLCFy0QRqQxOpNVkspZb4bkg+IfZhaCNqW+hJ70D8F+fCzw0sK3J4IiKSoyRYREREis7CSZcR/mYlNfPHU239+Iw7KlLf4TkYsri2jT4TI/qfLxO/ogpuK3ZcIiKiJFhERESKqnrsDUS//g41Z0+kvipCwBm9qe+7GSBOxm2lOz6J3hvOpfI70K/ewyIiRaQkWERERIplwlfg12NpPLKRGp8f3yhZ+PzeGCCLpYM+20H7Ax+G8w/QLtIiIkWjJFhERERGnIWZnyf48PaMnzmGyKhe+ry5HAy9JOxSWldcQ+pYA68WOyYRkXLkFDsAERERKS8WZn2VwJ9mM2FauSTAAC6WWsJmeyZM/TLBP/bC9sWOSUSkHPmKHYCIiIiUk3HjXfp/NJFJh4wh4i+XBDjPAmECTgXhsffTO/NxGh6FgVix4xIRKSeaCRYREZER8wDtF1TSeHI5JsB5LpZqQr4xjPvwnXReVOx4RETKjZJgERERGREWDnyc6s+No7o8s9/1NFJtX6DmfAtHFDsWEZFyouXQIiIiMiJq8V9Zxdi9qgmbkcmCXTK8TYZusrmLSzeGCFlW4DB2RKLYED+O8eELP8VA+AHcuwC3qAGJiJQJzQSLiIjISBjfRuTjY4gwMsugXRwyLPj1TRz7xhsc89prHPvGGxz0twdp2HtvFt77dzK8lfu3dshl5LhYagjRTuVHLUwZ0QcXESlj/mIHICIiItu+i+HEGkKuD8c3EkmwBRyC1DWOp+XfL9Ly9DM4wQCZzjXE3ljOmzfcjsOYIYmwx8dMzAieHvlwqCWU/RacAPzviD2wiEgZUxIsIiIiBRfGd1ojFT47orOtBjeVpueNt2j5xY/X1oDVsAsHXnkZ9/3lGfa6/lc4lRHCExvIJlM8ddTFJOkZsUTYYqkn7FtG8AxIKQkWERkBWg4tIiIiBediZwUJjPCC4wxOJMSMww9h99/dwm63/J7Zl/8APzVk02lc2glNaqTp7Ve5/7D9GXhjJRM/ewwuPSMWoQVCBHBxZ43Yg4qIlDnNBIuIiEjBWaj04xuheuAhjMG4FiedxbEGJ+Ni8jdRy8CyJgZWNOOnnlRfjEBtFRAf0RB9+HChakQfVESkjCkJFhERkZFgR74vkh83nmTV8/9m+WVfyy1/q6SSabnbjReV9SqIjfGuKhLtDC0iMkK0HFpEREQKzoHWFOkRzjENjuPgBIMYHBxmYxgH+HB8PgwOxnEwuezX+/vInxolSeOH1hF/YBGRMqUkWERERAouiHk6RpKRmmo1GFws7W++SeydVRgacrc4ZMnS9PLLuBg6li8j3t6BIUzXOyvpa2rCMGZEYszH2U+KEDw9Yg8qIlLmirfoR0RERMrGl+HwCuofnk0D2RGrC7ZkWYahAYfaIde6ZFmKj1m4dONQjSGEyxq8pkU1IxQfOBiW08X2dH3k43DPiD2wiEgZUxIsIiIiIyH8FSpad2Bc7cjvEl2aDJAiw1u0R6+kf4aB7mLHJCJSDrQcWkREREZCYjcGvtBOPKsEeFAn8ew8+i9RAiwiMnKUBIuIiMiIOAXu99H9TIxE2S9FM0CMJBm6Fp0Gfy12PCIi5URJsIiIiIwIAy2nkf5RJz2tVgui6aCn43jSPzGwotixiIiUEyXBIiIiMmKmwB1hYtcvpzPqL9PTED8Oy+kacIneMAduK3Y8IiLlxlfsAERERKS8PASPHEliTAfu3FoiYadMFkcbwAIr6epz6b7xW3BxkUMSESlLSoJFRERkxD0MD59Msq4Ds0OYQOW2PitsMKTI0kpvVzXdv/0KfK7YMYmIlCslwSIiIlIU98Ej5xCPvk3qAD+BYAVBsy1WCvsw9BJ3V9ExMJPeb54HPwSyxY5LRKRclcf6IxERESlR1vRjdv8W/j81UD91EjV+cNgWNs4yuQXQrfRlmunuuIL0Ryqwz8M2meuLiIwaSoJFRESkJFwOVycwp05myoRKgj4/vlGZDBsMGbL0k3abaVpdiXvH1+GiYsclIiIeJcEiIiJSMgZgz9/C2d3UnlBHzYRKAjaI39gST4cN+brfjO0nbXro66yn946z4XcV8Eyx4xMRkUFKgkVERKTUOBYOvQGOX07NmZWEa8ZSQQVBXCipdNhgcIA4aTrpp59EbBp9N58L9xh4EHCLHaOIiKxLSbCIiIiUqpCFKT+HE1YS+lqQUP04qqinEgeTS4WH/r+wzJC/edW+lm76aSdGgmR0Askrvwh/MtAEJEYgJBEReR+UBIuIiMhoseu34fwE7B0gWFtD3XaVhPHjw4fByV0GO/J63kuCbN71lbcQO7v24hIjQR+9y1PE11TA89+AXwGLtsLxiYjICFASLCIiIqPR/n+Bw2MwvR1nXIbKuZbIjBB+48PBh0MAgx9nbXI8mCIPnv7ka40tLi4WN5fopnJ/en/PWENilY/YS2NxO2th5YnwKN5FRERGGSXBIiIiMtqNfw1m7QSTY/D/7dw9CsJAEIbhdzc/LBaCqUTExsJTeHYPogiCijYptDJZMxbZ4AUEIXwPTDfNlB/MTLWD+Zl89aTctBSLiKs6mGY4/43CvS7F4IiZxx45VgfiZULcL2lOW7jNoD7CdQ0H4P6/MUVE5BcUgkVERGRsHBCAYFACBZABPtXQM2xKG/BO1Tpo6G96X+ixlYjI6HwAawMu9KejR2gAAAAASUVORK5CYII=;" parent="1" vertex="1">
                    <mxGeometry x="-570" y="190" width="1051" height="640.88" as="geometry"/>
                </mxCell>
            </root>
        </mxGraphModel>
    </diagram>
</mxfile>